<svg width="25" height="25" viewBox="0 0 25 25" fill="none" xmlns="http://www.w3.org/2000/svg">
<mask id="mask0_1644_709" style="mask-type:alpha" maskUnits="userSpaceOnUse" x="0" y="0" width="25" height="25">
<rect x="0.164062" y="0.756348" width="24" height="24" fill="#D9D9D9"/>
</mask>
<g mask="url(#mask0_1644_709)">
<path d="M10.1953 12.7564L17.3191 19.8804C17.6257 20.1869 17.7772 20.5539 17.7736 20.9814C17.7699 21.4089 17.6101 21.7806 17.2941 22.0966C16.9876 22.4031 16.6206 22.5564 16.1931 22.5564C15.7656 22.5564 15.3986 22.4031 15.0921 22.0966L7.60406 14.6336C7.33806 14.3676 7.1409 14.0719 7.01256 13.7466C6.8844 13.4213 6.82031 13.0912 6.82031 12.7564C6.82031 12.4215 6.8844 12.0914 7.01256 11.7661C7.1409 11.4408 7.33806 11.1451 7.60406 10.8791L15.0921 3.40535C15.3986 3.09869 15.7674 2.94485 16.1986 2.94385C16.6297 2.94269 17.0032 3.1001 17.3191 3.4161C17.6257 3.7226 17.7791 4.09202 17.7791 4.52435C17.7791 4.95652 17.6257 5.32585 17.3191 5.63235L10.1953 12.7564Z" fill="#755D52"/>
</g>
</svg>
