<svg width="51" height="45" viewBox="0 0 51 45" fill="none" xmlns="http://www.w3.org/2000/svg">
<path d="M41.8406 9.27081H35.5822C36.2287 6.25835 35.0261 3.17895 32.4902 1.39668C31.1939 0.484145 29.666 0 28.0769 0C26.5975 0 25.1589 0.424069 23.9152 1.22607L23.784 1.31147L23.6569 1.40257L3.25846 16.128C1.21527 17.6075 0 19.9886 0 22.5018C0 25.0142 1.21527 27.3952 3.25178 28.8697L23.6569 43.6002L23.784 43.6912L23.9152 43.7766C25.159 44.5786 26.5975 45.0026 28.0769 45.0026C29.6667 45.0026 31.1939 44.5192 32.4936 43.6034C35.0219 41.8261 36.2253 38.7501 35.5822 35.7325H41.8406C46.4831 35.7325 50.26 31.9556 50.26 27.3131V17.6893C50.26 13.0478 46.4831 9.27081 41.8406 9.27081ZM44.2651 27.3133C44.2651 28.6523 43.1796 29.7378 41.8406 29.7378H28.0267L29.7111 36.9471C29.8666 37.6145 29.6032 38.3078 29.0428 38.7017C28.7534 38.9058 28.4155 39.0078 28.0769 39.0078C27.7608 39.0078 27.4437 38.9183 27.1661 38.7394L6.76772 24.0139C6.2826 23.6626 5.99488 23.1006 5.99488 22.5018C5.99488 21.903 6.2826 21.3401 6.76772 20.9888L27.1661 6.26336C27.4437 6.0844 27.7608 5.99488 28.0769 5.99488C28.4155 5.99488 28.7534 6.09776 29.0428 6.30095C29.6031 6.69489 29.8675 7.38901 29.7111 8.05475L28.0267 15.2657H41.8406C43.1795 15.2657 44.2651 16.3504 44.2651 17.6895V27.3133Z" fill="#755D52"/>
</svg>
