<?xml version="1.0" encoding="UTF-8"?>
<svg id="_レイヤー_1" xmlns="http://www.w3.org/2000/svg" version="1.1" viewBox="0 0 220 160">
  <!-- Generator: Adobe Illustrator 29.1.0, SVG Export Plug-In . SVG Version: 2.1.0 Build 142)  -->
  <defs>
    <style>
      .st0 {
        fill: #f3db92;
      }

      .st1 {
        fill: #745c51;
      }

      .st2 {
        fill: #ccc;
      }

      .st3 {
        fill: #fff;
      }

      .st4 {
        fill: #ddeff2;
      }

      .st5 {
        fill: #f2d084;
      }

      .st6 {
        fill: #735c51;
      }

      .st7 {
        fill: #e6b757;
      }
    </style>
  </defs>
  <g>
    <path class="st5" d="M41.5,31.9c-7.3,6-18.2,4.8-24.1-2.5-6-7.3-4.8-18.2,2.5-24.1C27.2-.6,38.1.5,44,7.8c6,7.3,4.8,18.2-2.5,24.1Z"/>
    <path class="st5" d="M28.8,33.3l-9.6,17c-1,1.8-3.2,2.4-5,1.4s-2.4-3.2-1.4-5l9.6-17c1-1.8,3.2-2.4,5-1.4s2.4,3.2,1.4,5Z"/>
    <path class="st4" d="M19.7,21.6c1.6,6.1,7.9,9.7,13.9,8,6.1-1.6,9.7-7.9,8-13.9-1.6-6.1-7.9-9.7-13.9-8-6.1,1.6-9.7,7.9-8,13.9Z"/>
    <path class="st3" d="M24.1,14.4c-.3,0-.7,0-.9-.2-.5-.4-.6-1.2-.2-1.7,1.4-1.8,4.6-4.7,10-3.6.7.1,1.1.8,1,1.4,0,.7-.8,1.1-1.4,1-3.9-.8-6.3,1.1-7.7,2.8-.2.2-.5.4-.8.4h0Z"/>
    <path class="st3" d="M34.6,12.7c.2.8,1.1,1.3,1.9,1.1s1.3-1.1,1.1-1.9-1.1-1.3-1.9-1.1-1.3,1.1-1.1,1.9Z"/>
  </g>
  <g>
    <rect class="st5" x="51.3" y="30.2" width="147.8" height="122.8"/>
    <rect class="st0" x="45.6" y="35.7" width="147.8" height="122.8"/>
    <polygon class="st2" points="47.3 35.7 51.3 31.1 198.3 31.1 193.4 35.7 47.3 35.7"/>
    <polygon class="st2" points="198.3 31.1 193.4 35.7 193.4 158.5 198.3 153.1 198.3 31.1"/>
    <path class="st2" d="M195.7,30.8"/>
    <path class="st7" d="M45.6,35.7h1.7l4-4.6v-.9s-5.8-.4-5.8,5.4h0Z"/>
  </g>
  <g>
    <path class="st6" d="M116.2,96c-4.6,0-8.7-.5-12.1-1.1-11.1-2.2-17.4-6.5-17.7-6.7-.6-.4-.7-1.1-.3-1.7.4-.6,1.1-.7,1.7-.3h0s6.3,4.3,16.9,6.3c9.8,1.9,25.3,2.2,44.1-6.8.6-.3,1.3,0,1.6.6s0,1.3-.6,1.6c-12.9,6.2-24.4,8.2-33.6,8.2h0Z"/>
    <ellipse class="st6" cx="143.6" cy="65.1" rx="5.7" ry="7.3"/>
    <path class="st6" d="M147.7,55.7c-.3,0-.6,0-.9-.4-2.9-2.9-6.1-.3-6.5,0-.5.4-1.3.4-1.7,0-.4-.5-.4-1.3,0-1.7,1.8-1.6,6.1-3.7,9.8,0,.5.5.5,1.2,0,1.7-.2.2-.5.4-.9.4h.2Z"/>
    <ellipse class="st6" cx="92.8" cy="65.1" rx="5.7" ry="7.3"/>
    <path class="st6" d="M96.9,55.7c-.3,0-.6,0-.9-.4-2.9-2.9-6.1-.3-6.5,0-.5.4-1.3.4-1.7,0-.4-.5-.4-1.3,0-1.7,1.8-1.6,6.1-3.7,9.8,0,.5.5.5,1.2,0,1.7-.2.2-.5.4-.9.4h.2Z"/>
  </g>
  <g>
    <path class="st1" d="M41.2,96.8c-6.8,0-11.4-1.4-19-7.3-10.1-7.8-10.9-21.2-10.9-40s1.4-3,3-3,3,1.4,3,3c0,16.7,0,28.6,8.5,35.1,11.9,9.3,24.2,5.2,24.4,5.1,1.6-.4,3.3.6,3.7,2.2s-.6,3.3-2.2,3.7c-.4,0-4.7,1.2-10.6,1.2h.1Z"/>
    <circle class="st3" cx="15.6" cy="53.8" r="11.2"/>
    <path class="st1" d="M15.5,65.8c-7,0-12.7-5.7-12.7-12.7s5.7-12.7,12.7-12.7,12.7,5.7,12.7,12.7-5.7,12.7-12.7,12.7ZM15.5,43.5c-5.3,0-9.7,4.3-9.7,9.7s4.3,9.7,9.7,9.7,9.7-4.3,9.7-9.7-4.3-9.7-9.7-9.7Z"/>
  </g>
  <path class="st1" d="M202.6,114.4c-1.2,0-2.3-.7-2.8-1.9-7.1-17.6-16.3-20.4-16.4-20.5-1.6-.6-2.3-2.4-1.7-3.9.6-1.6,2.4-2.3,3.9-1.7.8.3,11.7,3.8,19.9,23.8.6,1.6-.1,3.3-1.7,4-.4.2-.8.2-1.1.2h0Z"/>
  <circle class="st3" cx="204.5" cy="119.2" r="11.2"/>
  <path class="st1" d="M204.5,131.9c-.6,0-1.2,0-1.8-.1-3.4-.5-6.3-2.2-8.4-4.9-2-2.7-2.9-6.1-2.4-9.4h0c.5-3.4,2.2-6.3,4.9-8.4,2.7-2,6.1-2.9,9.4-2.4,3.4.5,6.3,2.2,8.4,4.9,2,2.7,2.9,6.1,2.4,9.4-.9,6.3-6.4,10.9-12.6,10.9h.1ZM204.5,109.5c-2.1,0-4.1.7-5.8,1.9-2.1,1.6-3.4,3.8-3.8,6.4h0c-.4,2.6.3,5.1,1.8,7.2,1.6,2.1,3.8,3.4,6.4,3.8,5.3.7,10.2-2.9,10.9-8.2.4-2.6-.3-5.1-1.8-7.2-1.6-2.1-3.8-3.4-6.4-3.8h-1.4.1Z"/>
</svg>