<?xml version="1.0" encoding="UTF-8"?>
<svg id="_レイヤー_1" data-name="レイヤー_1" xmlns="http://www.w3.org/2000/svg" version="1.1" viewBox="0 0 220 160">
  <!-- Generator: Adobe Illustrator 29.1.0, SVG Export Plug-In . SVG Version: 2.1.0 Build 142)  -->
  <defs>
    <style>
      .st0 {
        fill: #f3db92;
      }

      .st1 {
        fill: #745c51;
      }

      .st2 {
        fill: #ccc;
      }

      .st3 {
        fill: #fff;
      }

      .st4 {
        fill: #f2d084;
      }

      .st5 {
        fill: #735c51;
      }

      .st6 {
        fill: #e6b757;
      }
    </style>
  </defs>
  <g>
    <rect class="st4" x="51.3" y="30.2" width="147.8" height="122.8"/>
    <rect class="st0" x="45.6" y="35.7" width="147.8" height="122.8"/>
    <polygon class="st2" points="47.3 35.7 51.3 31.1 198.3 31.1 193.4 35.7 47.3 35.7"/>
    <polygon class="st2" points="198.3 31.1 193.4 35.7 193.4 158.5 198.3 153.1 198.3 31.1"/>
    <path class="st2" d="M195.7,30.8"/>
    <path class="st6" d="M45.6,35.7h1.7l4-4.6v-.9s-5.8-.4-5.8,5.4Z"/>
  </g>
  <path class="st5" d="M118.8,80.7c-2.9,0-5.4.5-7.5,1.1-6.8,2.2-10.8,6.5-11,6.7-.3.4-.4,1.1-.2,1.7.2.6.7.7,1,.3h0s3.9-4.3,10.5-6.3c6-1.9,15.7-2.2,27.3,6.8.4.3.8,0,1-.6s0-1.3-.3-1.6c-8-6.2-15.1-8.2-20.8-8.2Z"/>
  <ellipse class="st5" cx="143.6" cy="65.1" rx="5.7" ry="7.3"/>
  <path class="st5" d="M147.7,55.7c-.3,0-.6-.1-.9-.4-2.9-2.9-6.1-.3-6.5,0-.5.4-1.3.4-1.7,0-.4-.5-.4-1.3,0-1.7,1.8-1.6,6.1-3.7,9.8,0,.5.5.5,1.2,0,1.7-.2.2-.5.4-.9.4Z"/>
  <ellipse class="st5" cx="92.8" cy="65.1" rx="5.7" ry="7.3"/>
  <path class="st5" d="M96.9,51.3c-.3,0-.6-.1-.9-.4-2.9-2.9-6.1-.3-6.5,0-.5.4-1.3.4-1.7,0-.4-.5-.4-1.3,0-1.7,1.8-1.6,6.1-3.7,9.8,0,.5.5.5,1.2,0,1.7-.2.2-.5.4-.9.4Z"/>
  <g>
    <path class="st1" d="M62.9,107.9c4,5.5,8.4,8.4,17.7,11.1,12.2,3.6,23.6-3.6,38.8-14.6,1.4-1,1.7-2.9.7-4.2s-2.9-1.7-4.2-.7c-13.6,9.8-23.1,16.7-33.5,13.7-14.5-4.3-22.7-21-22.8-21.1-.6-1.6-2.4-2.3-3.9-1.7-1.6.6-2.3,2.4-1.7,3.9.4,1,6.1,10.3,9,13.6Z"/>
    <circle class="st3" cx="113.3" cy="103.4" r="11.2"/>
    <path class="st1" d="M103.6,110.6c4.1,5.7,12.1,7,17.7,2.9,5.7-4.1,7-12.1,2.9-17.7-4.1-5.7-12.1-7-17.7-2.9-5.7,4.1-7,12.1-2.9,17.7ZM121.8,97.5c3.1,4.3,2.1,10.4-2.2,13.5-4.3,3.1-10.4,2.1-13.5-2.2s-2.1-10.4,2.2-13.5c4.3-3.1,10.4-2.1,13.5,2.2Z"/>
  </g>
  <path class="st1" d="M202.6,114.4c-1.2,0-2.3-.7-2.8-1.9-7.1-17.6-16.3-20.4-16.4-20.5-1.6-.6-2.3-2.4-1.7-3.9.6-1.6,2.4-2.3,3.9-1.7.8.3,11.7,3.8,19.9,23.8.6,1.6-.1,3.3-1.7,4-.4.2-.8.2-1.1.2Z"/>
  <circle class="st3" cx="204.5" cy="119.2" r="11.2"/>
  <path class="st1" d="M204.5,131.9c-.6,0-1.2,0-1.8-.1-3.4-.5-6.3-2.2-8.4-4.9-2-2.7-2.9-6.1-2.4-9.4h0c.5-3.4,2.2-6.3,4.9-8.4s6.1-2.9,9.4-2.4c3.4.5,6.3,2.2,8.4,4.9,2,2.7,2.9,6.1,2.4,9.4-.9,6.3-6.4,10.9-12.6,10.9ZM204.5,109.5c-2.1,0-4.1.7-5.8,1.9-2.1,1.6-3.4,3.8-3.8,6.4h0c-.4,2.6.3,5.1,1.8,7.2,1.6,2.1,3.8,3.4,6.4,3.8,5.3.7,10.2-2.9,10.9-8.2.4-2.6-.3-5.1-1.8-7.2-1.6-2.1-3.8-3.4-6.4-3.8-.5,0-.9,0-1.4,0Z"/>
</svg>