<?xml version="1.0" encoding="UTF-8"?>
<svg id="_レイヤー_1" data-name="レイヤー_1" xmlns="http://www.w3.org/2000/svg" version="1.1" viewBox="0 0 220 120">
  <!-- Generator: Adobe Illustrator 29.1.0, SVG Export Plug-In . SVG Version: 2.1.0 Build 142)  -->
  <defs>
    <style>
      .st0 {
        fill: #f3db92;
      }

      .st1 {
        fill: #745c51;
      }

      .st2 {
        fill: #ccc;
      }

      .st3 {
        fill: #fff;
      }

      .st4 {
        fill: #f2d084;
      }

      .st5 {
        fill: #735c51;
      }

      .st6 {
        fill: #e6b757;
      }
    </style>
  </defs>
  <g>
    <rect class="st4" x="36.1" y="6.9" width="161.2" height="100.5"/>
    <rect class="st0" x="29.8" y="12.8" width="161.2" height="100.5"/>
    <polygon class="st2" points="31.7 12.8 36.1 7.8 196.4 7.8 191 12.8 31.7 12.8"/>
    <polygon class="st2" points="196.4 7.8 191 12.8 191 113.3 196.4 107.4 196.4 7.8"/>
    <path class="st2" d="M193.6,7.4"/>
    <path class="st6" d="M29.8,12.8h1.9l4.4-5v-.9s-6.3-.4-6.3,5.9Z"/>
  </g>
  <ellipse class="st5" cx="136.7" cy="44.9" rx="6.2" ry="8"/>
  <path class="st5" d="M141.2,34.6c-.3,0-.7-.1-.9-.4-3.2-3.2-6.7-.3-7.1,0-.5.5-1.4.4-1.9-.1-.5-.5-.4-1.4,0-1.9,1.9-1.8,6.7-4,10.7,0,.5.5.5,1.4,0,1.9-.3.3-.6.4-.9.4Z"/>
  <ellipse class="st5" cx="81.3" cy="44.9" rx="6.2" ry="8"/>
  <path class="st5" d="M85.8,34.6c-.3,0-.7-.1-.9-.4-3.2-3.2-6.7-.3-7.1,0-.5.5-1.4.4-1.9-.1-.5-.5-.4-1.4,0-1.9,1.9-1.8,6.7-4,10.7,0,.5.5.5,1.4,0,1.9-.3.3-.6.4-.9.4Z"/>
  <g>
    <path class="st1" d="M16.7,92.9c1.3,0,2.5-.8,3.1-2.1,7.8-19.2,17.7-22.2,17.9-22.3,1.7-.7,2.5-2.6,1.9-4.3-.7-1.7-2.6-2.5-4.3-1.9-.9.4-12.8,4.1-21.7,26-.7,1.7.1,3.6,1.8,4.3.4.2.8.2,1.2.2Z"/>
    <circle class="st3" cx="14.6" cy="98.1" r="12.2"/>
    <path class="st1" d="M14.6,112c.6,0,1.3,0,2-.1,3.7-.5,6.9-2.4,9.1-5.4,2.2-3,3.2-6.6,2.6-10.3h0c-.5-3.7-2.4-6.9-5.4-9.1-3-2.2-6.6-3.2-10.3-2.6-3.7.5-6.9,2.4-9.1,5.4s-3.2,6.6-2.6,10.3c1,6.9,6.9,11.9,13.7,11.9ZM14.6,87.6c2.3,0,4.5.7,6.3,2.1,2.3,1.7,3.7,4.2,4.1,6.9h0c.4,2.8-.3,5.6-2,7.8-1.7,2.3-4.2,3.7-6.9,4.1-5.8.8-11.1-3.2-11.9-9-.4-2.8.3-5.6,2-7.8,1.7-2.3,4.2-3.7,6.9-4.1.5,0,1-.1,1.5-.1Z"/>
  </g>
  <g>
    <path class="st1" d="M202,36.9c-1.3,0-2.5.8-3.1,2.1-7.8,19.2-17.7,22.2-17.9,22.3-1.7.7-2.5,2.6-1.9,4.3.7,1.7,2.6,2.5,4.3,1.9.9-.4,12.8-4.1,21.7-26,.7-1.7-.1-3.6-1.8-4.3-.4-.2-.8-.2-1.2-.2Z"/>
    <circle class="st3" cx="204.1" cy="31.6" r="12.2"/>
    <path class="st1" d="M204.1,17.8c-.6,0-1.3,0-2,.1-3.7.5-6.9,2.4-9.1,5.4-2.2,3-3.2,6.6-2.6,10.3h0c.5,3.7,2.4,6.9,5.4,9.1,3,2.2,6.6,3.2,10.3,2.6,3.7-.5,6.9-2.4,9.1-5.4,2.2-3,3.2-6.6,2.6-10.3-1-6.9-6.9-11.9-13.7-11.9ZM204,42.2c-2.3,0-4.5-.7-6.3-2.1-2.3-1.7-3.7-4.2-4.1-6.9h0c-.4-2.8.3-5.6,2-7.8,1.7-2.3,4.2-3.7,6.9-4.1,5.8-.8,11.1,3.2,11.9,9,.4,2.8-.3,5.6-2,7.8-1.7,2.3-4.2,3.7-6.9,4.1-.5,0-1,.1-1.5.1Z"/>
  </g>
  <path class="st5" d="M79,63.8h62.8c1.1,0,1.6,1.4.7,2.1-8.7,6.4-37.2,23.5-64.2,0-.8-.7-.3-2.1.8-2.1Z"/>
</svg>