<?xml version="1.0" encoding="UTF-8"?>
<svg id="_レイヤー_1" data-name="レイヤー_1" xmlns="http://www.w3.org/2000/svg" version="1.1" viewBox="0 0 220 160">
  <!-- Generator: Adobe Illustrator 29.1.0, SVG Export Plug-In . SVG Version: 2.1.0 Build 142)  -->
  <defs>
    <style>
      .st0 {
        fill: #f3db92;
      }

      .st1 {
        fill: #745c51;
      }

      .st2, .st3 {
        fill: #fff;
      }

      .st2, .st4 {
        opacity: .3;
      }

      .st5 {
        fill: #ccc;
      }

      .st6 {
        fill: #f2d084;
      }

      .st7 {
        fill: #735c51;
      }

      .st8 {
        fill: #e6b757;
      }

      .st4 {
        fill: #ddeff2;
      }
    </style>
  </defs>
  <g>
    <rect class="st6" x="51.3" y="30.2" width="147.8" height="122.8"/>
    <rect class="st0" x="45.6" y="35.7" width="147.8" height="122.8"/>
    <polygon class="st5" points="47.3 35.7 51.3 31.1 198.3 31.1 193.4 35.7 47.3 35.7"/>
    <polygon class="st5" points="198.3 31.1 193.4 35.7 193.4 158.5 198.3 153.1 198.3 31.1"/>
    <path class="st5" d="M195.7,30.8"/>
    <path class="st8" d="M45.6,35.7h1.7l4-4.6v-.9s-5.8-.4-5.8,5.4Z"/>
  </g>
  <g>
    <path class="st1" d="M202.6,114.4c-1.2,0-2.3-.7-2.8-1.9-7.1-17.6-16.3-20.4-16.4-20.5-1.6-.6-2.3-2.4-1.7-3.9.6-1.6,2.4-2.3,3.9-1.7.8.3,11.7,3.8,19.9,23.8.6,1.6-.1,3.3-1.7,4-.4.2-.8.2-1.1.2Z"/>
    <circle class="st3" cx="204.5" cy="119.2" r="11.2"/>
    <path class="st1" d="M204.5,131.9c-.6,0-1.2,0-1.8-.1-3.4-.5-6.3-2.2-8.4-4.9-2-2.7-2.9-6.1-2.4-9.4h0c.5-3.4,2.2-6.3,4.9-8.4,2.7-2,6.1-2.9,9.4-2.4,3.4.5,6.3,2.2,8.4,4.9s2.9,6.1,2.4,9.4c-.9,6.3-6.4,10.9-12.6,10.9ZM204.5,109.5c-2.1,0-4.1.7-5.8,1.9-2.1,1.6-3.4,3.8-3.8,6.4h0c-.4,2.6.3,5.1,1.8,7.2,1.6,2.1,3.8,3.4,6.4,3.8,5.3.7,10.2-2.9,10.9-8.2.4-2.6-.3-5.1-1.8-7.2-1.6-2.1-3.8-3.4-6.4-3.8-.5,0-.9,0-1.4,0Z"/>
  </g>
  <path class="st7" d="M147.7,55.7c-.3,0-.6-.1-.9-.4-2.9-2.9-6.1-.3-6.5,0-.5.4-1.3.4-1.7,0-.4-.5-.4-1.3,0-1.7,1.8-1.6,6.1-3.7,9.8,0,.5.5.5,1.2,0,1.7-.2.2-.5.4-.9.4Z"/>
  <ellipse class="st7" cx="143.6" cy="65.3" rx="5.7" ry="7.3"/>
  <ellipse class="st3" cx="143.6" cy="65.3" rx="5.1" ry="6.6"/>
  <ellipse class="st7" cx="143.6" cy="65.3" rx="2.9" ry="3.7"/>
  <g>
    <ellipse class="st7" cx="92.8" cy="65.3" rx="6.5" ry="8.3"/>
    <ellipse class="st3" cx="92.8" cy="65.3" rx="5.8" ry="7.5"/>
    <ellipse class="st7" cx="92.8" cy="65.3" rx="3.3" ry="4.2"/>
  </g>
  <path class="st7" d="M97.4,54.8c-.4,0-.7-.1-1-.4-3.3-3.3-7-.3-7.4,0-.6.5-1.4.5-1.9-.1-.5-.6-.5-1.4.1-1.9,2-1.8,7-4.2,11.2,0,.5.5.5,1.4,0,2-.3.3-.6.4-1,.4Z"/>
  <ellipse class="st7" cx="119.5" cy="97.1" rx="6.7" ry="8.6"/>
  <g>
    <path class="st6" d="M92.5,79.6l-7.3,18.1c-.8,1.9-2.9,2.8-4.8,2.1-1.9-.8-2.8-2.9-2.1-4.8l7.3-18.1c.8-1.9,2.9,1.5,4.8,2.3,1.9.8,2.8-1.5,2.1.5Z"/>
    <path class="st4" d="M81.9,69.3c2.4,5.8,9.1,8.5,14.9,6.1,5.8-2.4,8.5-9.1,6.1-14.9-2.4-5.8-9.1-8.5-14.9-6.1-5.8,2.4-8.5,9.1-6.1,14.9Z"/>
    <path class="st6" d="M104.2,52.4c-6.9-6.5-17.7-6.2-24.2.7-6.5,6.9-6.2,17.7.7,24.2,6.9,6.5,17.7,6.2,24.2-.7,6.5-6.9,6.2-17.7-.7-24.2ZM96.8,75.4c-5.8,2.4-12.5-.3-14.9-6.1-2.4-5.8.3-12.5,6.1-14.9,5.8-2.4,12.5.3,14.9,6.1,2.4,5.8-.3,12.5-6.1,14.9Z"/>
    <path class="st2" d="M85.4,61.6c-.3,0-.7,0-1-.1-.6-.3-.8-1.1-.4-1.7,1.2-2,4-5.2,9.5-4.9.7,0,1.2.6,1.1,1.3,0,.7-.6,1.2-1.3,1.1-4-.2-6.1,1.9-7.2,3.8-.2.3-.4.5-.7.5Z"/>
    <path class="st2" d="M95.5,58.5c.3.8,1.2,1.2,2,.8s1.2-1.2.8-2-1.2-1.2-2-.8-1.2,1.2-.8,2Z"/>
  </g>
  <g>
    <path class="st1" d="M73.7,106.8c0-1.2-.7-2.3-1.9-2.8-17.7-6.9-16.1-13.9-16.3-16.3s-2.4-2.3-4-1.7c-1.6.6-1.7,2.3-1.7,3.9s-.4,11.7,19.7,19.6c1.6.6,3.3-.2,3.9-1.7.1-.4.2-.8.2-1.1Z"/>
    <circle class="st3" cx="78.6" cy="108.7" r="11.2" transform="translate(-1.3 .9) rotate(-.7)"/>
    <path class="st1" d="M91.3,108.5c0-.6,0-1.2-.1-1.8-.5-3.4-2.3-6.3-5-8.3-2.7-2-6.1-2.8-9.4-2.3h0c-3.4.5-6.3,2.3-8.3,5-2,2.7-2.8,6.1-2.3,9.4.5,3.4,2.3,6.3,5,8.3,2.7,2,6.1,2.8,9.4,2.3,6.3-1,10.8-6.5,10.8-12.7ZM68.9,108.8c0-2.1.6-4.1,1.9-5.8,1.5-2.1,3.8-3.4,6.3-3.8h0c2.6-.4,5.1.2,7.2,1.8,2.1,1.5,3.4,3.8,3.8,6.3.8,5.3-2.8,10.2-8.1,11-2.6.4-5.1-.2-7.2-1.8-2.1-1.5-3.4-3.8-3.8-6.3,0-.5-.1-.9-.1-1.4Z"/>
  </g>
</svg>