<svg width="40" height="40" viewBox="0 0 40 40" fill="none" xmlns="http://www.w3.org/2000/svg">
<mask id="mask0_1436_1698" style="mask-type:alpha" maskUnits="userSpaceOnUse" x="0" y="0" width="40" height="40">
<rect width="40" height="40" fill="#D9D9D9"/>
</mask>
<g mask="url(#mask0_1436_1698)">
<path d="M20 21.9447L11.4445 30.5001C11.1759 30.7687 10.8518 30.903 10.472 30.903C10.0926 30.903 9.76857 30.7687 9.49996 30.5001C9.23135 30.2315 9.09705 29.9074 9.09705 29.528C9.09705 29.1483 9.23135 28.8241 9.49996 28.5555L18.0554 20.0001L9.49996 11.4447C9.23135 11.1761 9.09705 10.8519 9.09705 10.4722C9.09705 10.0927 9.23135 9.7687 9.49996 9.50008C9.76857 9.23147 10.0926 9.09717 10.472 9.09717C10.8518 9.09717 11.1759 9.23147 11.4445 9.50008L20 18.0555L28.5554 9.50008C28.824 9.23147 29.1482 9.09717 29.5279 9.09717C29.9073 9.09717 30.2314 9.23147 30.5 9.50008C30.7686 9.7687 30.9029 10.0927 30.9029 10.4722C30.9029 10.8519 30.7686 11.1761 30.5 11.4447L21.9445 20.0001L30.5 28.5555C30.7686 28.8241 30.9029 29.1483 30.9029 29.528C30.9029 29.9074 30.7686 30.2315 30.5 30.5001C30.2314 30.7687 29.9073 30.903 29.5279 30.903C29.1482 30.903 28.824 30.7687 28.5554 30.5001L20 21.9447Z" fill="#FEFEFE"/>
</g>
</svg>
