<svg width="200" height="49" viewBox="0 0 200 49" fill="none" xmlns="http://www.w3.org/2000/svg">
<g clip-path="url(#clip0_1414_594)">
<path d="M45.1104 43.1455C45.004 42.7449 44.8788 42.3507 44.7661 41.9564C44.0902 39.6095 43.4143 37.2563 42.7384 34.9094C41.9999 32.3372 41.2614 29.7712 40.5229 27.199C40.3289 26.5231 40.1349 25.8472 39.9409 25.1713C39.5404 23.7757 38.4577 22.8933 37.1622 22.3112C35.0531 21.3662 32.3807 20.997 30.0964 20.9406C27.6556 20.8843 25.1585 21.2661 22.8492 22.0609C22.3986 22.2173 21.6663 21.8043 21.2032 21.6791C20.6587 21.5352 20.1143 21.41 19.5635 21.3036C18.3431 21.0783 17.1102 20.9531 15.8773 20.9344C13.5116 20.8968 11.0959 21.3474 8.83661 22.0296C8.34219 22.2173 8.69266 22.0859 8.80531 22.0421C7.39717 22.5741 5.85135 23.444 5.407 24.9898C5.29435 25.3778 5.1817 25.7659 5.0753 26.1476C4.51205 28.1002 3.94879 30.0591 3.38553 32.0118L1.07618 40.0288C0.625573 41.5809 -0.256863 43.5836 0.0748331 45.217C0.48163 47.2447 2.46555 48.1772 4.37436 47.783C5.04401 47.6453 5.66359 47.3323 6.30821 47.107C7.38466 46.7253 8.47988 46.3998 9.60013 46.1683C12.2912 45.6113 15.0262 45.9054 17.6672 46.5876C18.2555 46.7378 20.471 47.1196 20.5336 47.783C20.5899 48.3963 21.3034 48.2336 21.7477 48.2336H23.0745C23.4813 48.2336 24.1572 48.3775 24.5452 48.2023C24.9332 48.0333 24.6328 47.614 24.9958 47.4575C25.4902 47.2447 26.0034 47.0632 26.5229 46.9068C27.7307 46.5313 28.9637 46.2496 30.2153 46.0681C32.8877 45.6801 35.4098 45.9618 37.9758 46.7691C39.4778 47.2447 40.936 48.1146 42.5632 47.8268C44.7849 47.4325 45.6924 45.1607 45.1104 43.133V43.1455Z" fill="#FEFEFE"/>
<path d="M45.1104 43.1455C45.004 42.7449 44.8788 42.3507 44.7661 41.9564C44.0902 39.6095 43.4143 37.2563 42.7384 34.9094C41.9999 32.3372 41.2614 29.7712 40.5229 27.199C40.3289 26.5231 40.1349 25.8472 39.9409 25.1713C39.5404 23.7757 38.4577 22.8933 37.1622 22.3112C35.0531 21.3662 32.3807 20.997 30.0964 20.9406C27.6556 20.8843 25.1585 21.2661 22.8492 22.0609C22.3986 22.2173 21.6663 21.8043 21.2032 21.6791C20.6587 21.5352 20.1143 21.41 19.5635 21.3036C18.3431 21.0783 17.1102 20.9531 15.8773 20.9344C13.5116 20.8968 11.0959 21.3474 8.83661 22.0296C8.34219 22.2173 8.69266 22.0859 8.80531 22.0421C7.39717 22.5741 5.85135 23.444 5.407 24.9898C5.29435 25.3778 5.1817 25.7659 5.0753 26.1476C4.51205 28.1002 3.94879 30.0591 3.38553 32.0118L1.07618 40.0288C0.625573 41.5809 -0.256863 43.5836 0.0748331 45.217C0.48163 47.2447 2.46555 48.1772 4.37436 47.783C5.04401 47.6453 5.66359 47.3323 6.30821 47.107C7.38466 46.7253 8.47988 46.3998 9.60013 46.1683C12.2912 45.6113 15.0262 45.9054 17.6672 46.5876C18.2555 46.7378 20.471 47.1196 20.5336 47.783C20.5899 48.3963 21.3034 48.2336 21.7477 48.2336H23.0745C23.4813 48.2336 24.1572 48.3775 24.5452 48.2023C24.9332 48.0333 24.6328 47.614 24.9958 47.4575C25.4902 47.2447 26.0034 47.0632 26.5229 46.9068C27.7307 46.5313 28.9637 46.2496 30.2153 46.0681C32.8877 45.6801 35.4098 45.9618 37.9758 46.7691C39.4778 47.2447 40.936 48.1146 42.5632 47.8268C44.7849 47.4325 45.6924 45.1607 45.1104 43.133V43.1455ZM21.5537 24.1387C21.5224 25.8472 21.4911 27.5558 21.4598 29.2643C21.3722 33.9581 21.2846 38.6519 21.197 43.3457C21.197 43.6587 21.1031 43.8527 20.7526 43.8464C18.8501 42.7136 16.597 42.0628 14.4128 41.7874C11.8469 41.462 9.33728 41.8124 6.88398 42.576C6.12046 42.8138 5.26931 43.327 4.46198 43.327C3.53573 43.327 2.99751 42.5009 3.21655 41.6435C3.77981 39.4217 4.34307 37.2 4.91258 34.9782C5.57598 32.3622 6.23937 29.7525 6.90276 27.1365C7.06548 26.4856 7.23445 25.8347 7.39717 25.1838C7.80397 23.5942 10.057 23.2875 11.4026 23.0122C13.9184 22.4927 16.4593 22.4927 18.9627 23.081M40.2914 43.2456C38.2198 42.3882 35.9418 41.7811 33.7013 41.6685C31.1541 41.5371 28.5506 42.0565 26.2037 43.0328C25.9408 43.1455 24.1697 44.4159 24.0946 43.5147C24.0571 41.3994 24.0195 39.2903 23.9757 37.1749C23.8943 32.8066 23.813 28.4445 23.7316 24.0761C23.7316 23.8258 24.3324 23.7006 24.4576 23.6505C25.4464 23.275 26.4791 23.0184 27.5242 22.8494C30.0651 22.4364 32.5622 22.6492 35.0468 23.2813C36.2672 23.5942 37.594 23.9947 37.9382 25.3528C38.1322 26.1163 38.3262 26.8736 38.5202 27.6371C39.6906 32.2496 40.8609 36.8558 42.0312 41.4682C42.3254 42.6198 41.5556 43.6461 40.2914 43.2519V43.2456Z" fill="#FFBECD"/>
<path d="M36.1924 18.5124C35.9858 18.5124 35.7793 18.4873 35.5665 18.431C35.2035 18.3371 34.415 18.1619 33.4387 17.9429C28.9889 16.954 26.5419 16.3657 25.4842 15.8901C24.2325 15.3331 23.6755 13.8686 24.2325 12.6169C24.7895 11.3653 26.2603 10.802 27.5057 11.359C28.313 11.7157 32.6626 12.6858 34.5151 13.0988C35.5665 13.3367 36.4177 13.5244 36.8119 13.6246C38.1387 13.9688 38.9335 15.3206 38.5893 16.6474C38.3014 17.7676 37.2938 18.5061 36.1861 18.5061H36.1924V18.5124Z" fill="#FFBECD"/>
<path d="M22.6426 39.428C21.8165 39.428 21.0091 39.0149 20.5398 38.2702C19.8075 37.1124 20.158 35.5791 21.3221 34.8468C22.1607 34.3211 23.0118 33.8079 23.863 33.2885C27.9685 30.8039 31.8925 28.4257 34.8653 24.4579C33.2756 24.6269 31.5107 24.8584 30.2716 25.0149C27.2738 25.4029 25.534 25.6157 24.6515 25.5781C23.2809 25.5156 22.2233 24.3577 22.2796 22.9934C22.3422 21.6228 23.5062 20.5651 24.8643 20.6215C25.4151 20.6528 27.7557 20.3336 29.6395 20.0958C38.4013 18.963 40.0535 18.8942 41.2113 20.5213C41.7745 21.3099 41.8559 22.3425 41.4241 23.2187C37.7316 30.7038 31.7298 34.3337 26.4352 37.538C25.6028 38.0386 24.7767 38.5393 23.9631 39.0525C23.5501 39.3091 23.0932 39.4343 22.6426 39.4343V39.428Z" fill="#FAE094"/>
<path d="M41.2868 40.1915C36.9185 40.1915 34.6654 39.5594 33.3762 38.0762C31.9994 36.4928 32.3623 34.6028 32.5751 33.47C32.863 31.9492 32.8067 31.9242 31.3798 31.3421C30.1093 30.8227 29.5023 29.377 30.0217 28.1065C30.5412 26.8361 31.9868 26.229 33.2573 26.7484C38.4956 28.8888 37.7634 32.7503 37.4504 34.3962C37.4254 34.5402 37.3879 34.7154 37.3628 34.8719C38.0137 35.0721 39.7535 35.3663 44.1532 35.1535C45.5238 35.0846 46.6878 36.1423 46.7504 37.5129C46.8193 38.8835 45.7616 40.0476 44.391 40.1101C43.252 40.1665 42.2193 40.1978 41.2806 40.1978L41.2868 40.1915Z" fill="#A0DAEA"/>
<path d="M48.5656 39.0525C47.9147 39.0525 46.5691 38.8397 45.6179 37.2501C44.1597 34.803 44.6478 30.5723 45.6179 23.8946C46.0247 21.1096 46.444 18.2308 46.3689 16.6662C46.3 15.2705 47.3765 14.0814 48.7721 14.0126C50.1615 13.95 51.3568 15.0202 51.4257 16.4158C51.5258 18.4748 51.094 21.4664 50.6309 24.6269C50.4243 26.0538 50.1302 28.0502 49.9424 29.9027C50.7435 28.3443 51.4507 27.4244 52.8526 27.2867C53.7913 27.1928 54.6926 27.5996 55.2558 28.3694C56.0882 29.4896 55.8566 31.0793 54.7301 31.9116C54.6675 31.9617 54.5987 32.0055 54.5298 32.0431C54.3358 32.4123 54.0918 32.9192 53.8977 33.326C52.5021 36.2174 51.1816 38.9461 48.6845 39.0525H48.5593H48.5656Z" fill="#FFBECD"/>
<path d="M59.9056 40.2478C58.122 40.2478 56.3509 39.7597 55.0741 38.9711C53.1778 37.7883 52.2704 35.9295 52.6459 33.9957C53.1716 31.3046 54.8175 29.4208 57.2834 28.6885C58.485 28.3318 59.8305 28.2817 61.2011 28.4382C61.2011 27.7498 61.2011 26.9675 61.2136 26.0788C61.2324 23.3752 61.2512 19.3447 61.1198 18.2871C60.7568 17.2607 61.0947 16.0779 62.021 15.4019C63.1537 14.5821 64.7371 14.8324 65.557 15.9589C66.2391 16.8977 66.3268 17.5235 66.2767 26.1038C66.2704 27.2429 66.2642 28.5822 66.2642 29.7462C68.7237 30.7038 70.7076 31.9054 71.3085 32.5312C72.2785 33.5388 72.2535 35.141 71.2521 36.111C70.2696 37.056 68.7237 37.056 67.7474 36.1298C67.5221 35.9546 67.0965 35.7042 66.5458 35.4163C66.3205 36.8057 65.6196 37.9948 64.4743 38.871C63.1975 39.841 61.5453 40.2541 59.8994 40.2541L59.9056 40.2478ZM67.6723 36.0484C67.6723 36.0484 67.7036 36.0797 67.7224 36.0985C67.7036 36.0797 67.6911 36.0672 67.6723 36.0484ZM57.6902 34.6403C58.3348 35.0972 60.1935 35.4727 61.2574 34.9219C61.4702 34.8155 61.7331 34.6778 61.4327 33.664C61.4202 33.6264 61.4139 33.5951 61.4014 33.5576C60.3249 33.3511 59.3236 33.3135 58.5851 33.5826C58.2597 33.7015 57.8967 33.8955 57.6839 34.6403H57.6902Z" fill="#A0DAEA"/>
<path d="M60.581 19.0756C59.0163 19.0756 57.4956 19.0318 56.2564 18.9254C54.8608 18.8003 53.8344 17.5736 53.9596 16.178C54.0847 14.7824 55.3114 13.756 56.707 13.8812C60.5872 14.2254 67.9158 13.8061 68.7669 13.6746C70.1438 13.4618 71.4455 14.4069 71.6583 15.7837C71.8711 17.1606 70.9449 18.4561 69.568 18.6751C68.7106 18.8128 64.505 19.0819 60.5872 19.0819H60.581V19.0756Z" fill="#FAE094"/>
<path d="M69.3184 27.124H69.2308L57.5714 26.7297C56.1757 26.6796 55.0805 25.5093 55.1243 24.1137C55.1681 22.718 56.3447 21.6166 57.7403 21.6666L69.3997 22.0609C70.7954 22.111 71.8906 23.2813 71.8468 24.6769C71.803 26.0475 70.6765 27.124 69.3184 27.124Z" fill="#FAE094"/>
<path d="M74.438 38.3828C73.9936 38.3828 73.5493 38.2702 73.1362 38.0261C71.9096 37.3064 71.4965 35.7293 72.2163 34.5026C73.9686 31.5174 76.0965 25.2151 77.8113 20.1584C78.5998 17.8365 79.3446 15.6398 79.9516 14.0501C80.4648 12.7234 81.9543 12.06 83.2811 12.5732C84.6079 13.0863 85.2713 14.5758 84.7581 15.9026C84.1886 17.3921 83.4564 19.5388 82.6866 21.8106C80.8028 27.368 78.6687 33.6703 76.6535 37.1124C76.1716 37.9322 75.3142 38.3891 74.4317 38.3891L74.438 38.3828Z" fill="#FFBECD"/>
<path d="M85.9907 34.8906C85.4086 34.8906 84.8203 34.6966 84.3384 34.2898C83.2432 33.3761 83.0993 31.7552 84.013 30.66C84.764 29.765 85.0081 28.8638 84.7077 28.1253C84.4824 27.5808 83.9754 27.1865 83.4122 27.1302C82.5923 27.0489 81.6661 27.6747 80.8838 28.8513C80.0952 30.0341 78.4993 30.3533 77.3102 29.5647C76.1274 28.7762 75.8082 27.1803 76.5968 25.9912C78.4743 23.1749 81.1466 21.7167 83.9316 21.9983C86.4037 22.2487 88.5316 23.8446 89.4828 26.1727C90.5092 28.6823 89.946 31.5925 87.9746 33.9519C87.4676 34.5652 86.7354 34.8781 85.9969 34.8781V34.8906H85.9907Z" fill="#FAE094"/>
<path d="M89.7211 38.12C86.6169 38.12 84.1386 36.0484 83.4689 32.8379C83.181 31.4423 84.076 30.0842 85.4653 29.79C86.8547 29.5021 88.219 30.3971 88.5132 31.7865C88.6884 32.6376 89.114 33.0069 89.8525 32.9568C90.8225 32.8879 92.3308 31.9367 92.4935 29.5772C92.5937 28.1566 93.8203 27.0927 95.241 27.1803C96.6616 27.2742 97.7318 28.5071 97.6379 29.9277C97.2937 34.9783 93.6388 37.8634 90.2092 38.0949C90.0465 38.1075 89.8838 38.1137 89.7211 38.1137V38.12Z" fill="#A0DAEA"/>
<path d="M114.423 8.46763C114.373 6.28971 115.643 5.45108 117.658 5.40727C119.636 5.36346 120.825 6.30222 120.875 8.31743L120.982 12.9174L131.79 12.667C133.805 12.617 135.038 13.562 135.088 15.6585C135.138 17.7551 133.949 18.794 131.934 18.8378L121.126 19.0882L121.501 35.0596C121.614 39.8223 119.098 41.1303 114.742 41.2304C112.201 41.2867 110.136 40.9363 110.061 37.8696C110.023 36.2988 110.843 35.1472 112.501 35.1097L113.709 35.0847C114.761 35.0596 115.03 34.7279 115.011 33.7203L114.673 19.2384L103.058 19.5075C101.042 19.5575 99.8094 18.575 99.7593 16.4784C99.7093 14.3818 100.898 13.3867 102.914 13.3367L114.529 13.0676L114.423 8.46763ZM100.21 34.1834C100.191 33.3386 100.579 32.7252 101.518 31.4485C103.239 29.1079 104.716 26.6108 106.024 23.9948C106.6 22.7681 107.182 21.8293 108.678 21.7918C110.167 21.7542 112.257 22.9183 112.295 24.6143C112.339 26.4293 109.654 30.7726 108.602 32.4061C107.864 33.6327 106.656 35.5165 105.749 36.3864C105.192 36.8808 104.597 37.1812 103.871 37.1937C102.219 37.2313 100.254 35.9859 100.21 34.1709V34.1834ZM127.077 21.4476C127.966 21.4288 128.78 21.773 129.362 22.4865C130.313 23.5942 131.114 24.8647 131.909 26.0976C133.248 28.0439 135.432 31.7051 135.457 32.9192C135.501 34.8155 133.717 36.1861 131.903 36.2299C130.569 36.2612 129.825 35.3913 129.28 34.3962C127.759 31.605 126.37 29.1392 124.699 26.6358C123.904 25.4404 123.735 25.0024 123.717 24.4391C123.679 22.7055 125.463 21.4914 127.077 21.4538V21.4476ZM135.595 7.77295C135.651 10.0698 133.755 12.0537 131.458 12.11C129.161 12.1664 127.177 10.2763 127.121 7.97322C127.065 5.67638 128.961 3.69247 131.258 3.63614C133.555 3.57982 135.539 5.47611 135.595 7.77295ZM129.468 7.91064C129.493 8.96205 130.363 9.82571 131.408 9.80068C132.46 9.77564 133.286 8.86817 133.261 7.82302C133.236 6.81541 132.372 5.94549 131.32 5.97053C130.269 5.99556 129.443 6.90303 129.468 7.91064Z" fill="#FAE094"/>
<path d="M151.247 34.1897C150.039 35.7167 146.947 38.871 144.907 38.871C143.474 38.871 142.197 37.5317 142.197 36.0985C142.197 35.2098 142.704 34.6653 143.887 33.8079C148.218 30.5285 149.807 26.7359 149.939 21.3599H143.762C142.904 22.7618 142.041 24.1637 141.02 25.4655C140.382 26.3229 139.556 27.2491 138.379 27.2491C137.04 27.2491 135.676 26.1977 135.676 24.7645C135.676 23.9697 136.12 23.3313 136.602 22.7243C139.024 19.7015 141.058 16.1968 142.46 12.5982C142.904 11.4216 143.286 10.3702 144.75 10.3702C146.058 10.3702 147.648 11.0398 147.648 12.5356C147.648 13.3304 147.072 14.8262 146.309 16.4534H160.96C162.487 16.4534 163.444 17.3108 163.444 18.9066C163.444 20.5025 162.487 21.3599 160.96 21.3599H155.196C155.102 26.0099 154.144 30.4659 151.247 34.1897Z" fill="#FAE094"/>
<path d="M159.971 23.2187C160.791 23.2187 161.11 23.7131 161.729 24.7833C162.03 25.3028 162.399 25.8973 162.718 26.4919C163.019 27.0614 163.238 27.6309 163.238 28.0064C163.238 28.9702 162.199 29.6148 161.329 29.6148C160.534 29.6148 160.315 29.2205 159.764 28.2004C159.395 27.4807 159.019 26.811 158.625 26.1664C158.206 25.4968 158.056 25.1275 158.056 24.8021C158.056 23.8571 159.095 23.2124 159.964 23.2124H159.971V23.2187ZM175.022 24.2576C175.022 25.0023 174.772 25.9661 174.578 26.7109C173.933 29.2894 172.869 31.8178 171.23 33.9268C169.446 36.1548 166.943 37.9698 164.264 38.9336C163.845 39.0838 163.419 39.234 162.975 39.234C162.005 39.234 161.291 38.2201 161.291 37.3001C161.291 36.3801 161.886 36.086 162.906 35.6667C168.263 33.3886 170.416 29.8651 171.411 24.3139C171.586 23.3439 171.981 22.6054 173.07 22.6054C174.083 22.6054 175.028 23.1248 175.028 24.2639L175.022 24.2576ZM164.959 22.0296C165.879 22.0296 166.398 22.8745 166.893 23.8884C167.437 24.8584 168.132 26.1914 168.132 26.8861C168.132 27.8499 167.162 28.5196 166.248 28.5196C165.428 28.5196 165.059 27.875 164.758 27.2053C164.389 26.3604 163.964 25.5218 163.494 24.727C163.269 24.3765 163.075 24.0073 163.075 23.613C163.075 22.6429 164.064 22.0233 164.959 22.0233V22.0296Z" fill="#FAE094"/>
<path d="M138.511 4.81271C140.332 8.89946 138.486 13.6997 134.399 15.5209C130.313 17.3421 125.512 15.4958 123.691 11.4091C121.87 7.32234 123.716 2.52214 127.803 0.700938C131.89 -1.12026 136.69 0.725972 138.511 4.81271Z" fill="#FAE094"/>
<path d="M131.101 13.4931C134.074 13.4931 136.483 11.0834 136.483 8.1109C136.483 5.13838 134.074 2.72867 131.101 2.72867C128.128 2.72867 125.719 5.13838 125.719 8.1109C125.719 11.0834 128.128 13.4931 131.101 13.4931Z" fill="#DFF1F4"/>
<path d="M137.628 12.0474L141.089 15.4207C141.778 16.0966 141.796 17.1981 141.121 17.8928C140.445 18.5812 139.343 18.6 138.648 17.9241L135.188 14.5508C134.499 13.8749 134.48 12.7734 135.156 12.0787C135.832 11.3903 136.934 11.3715 137.628 12.0474Z" fill="#A0DAEA"/>
<path d="M127.421 6.09567C126.507 7.97945 127.064 9.54406 127.797 10.5329" stroke="#FEFEFE" stroke-width="2" stroke-linecap="round" stroke-linejoin="round"/>
<path d="M128.71 5.45107C129.111 5.45107 129.436 5.12604 129.436 4.72509C129.436 4.32415 129.111 3.99911 128.71 3.99911C128.309 3.99911 127.984 4.32415 127.984 4.72509C127.984 5.12604 128.309 5.45107 128.71 5.45107Z" fill="#FEFEFE"/>
<path d="M197.835 25.5844C198.843 26.2665 200.007 27.1365 200 28.4883C199.994 30.1405 198.705 31.8991 196.978 31.8866C195.851 31.8866 195.138 31.2733 193.31 30.1029C190.469 28.288 187.584 26.6546 184.548 25.2902L184.473 39.2966C184.461 41.3994 183.441 42.3319 181.338 42.3194C179.273 42.3068 178.265 41.3618 178.277 39.259L178.428 11.2464C178.44 9.14353 179.46 8.21103 181.526 8.22354C183.628 8.23606 184.636 9.18108 184.623 11.2839L184.586 18.6062C189.117 20.659 193.686 22.8244 197.841 25.5844H197.835Z" fill="#FAE094"/>
</g>
<defs>
<clipPath id="clip0_1414_594">
<rect width="200" height="48.2899" fill="white"/>
</clipPath>
</defs>
</svg>
