<?xml version="1.0" encoding="UTF-8"?>
<svg id="_レイヤー_1" data-name="レイヤー 1" xmlns="http://www.w3.org/2000/svg" viewBox="0 0 319.56 77.18">
  <defs>
    <style>
      .cls-1 {
        fill: #f7df73;
      }

      .cls-2 {
        fill: #dff1f4;
      }

      .cls-3 {
        fill: none;
        stroke: #fff;
        stroke-linecap: round;
        stroke-linejoin: round;
        stroke-width: 2px;
      }

      .cls-4 {
        fill: #a5d3d8;
      }

      .cls-5 {
        fill: #fff;
      }

      .cls-6 {
        fill: #eaa9bf;
      }

      .cls-7 {
        fill: #eed874;
      }
    </style>
  </defs>
  <g>
    <path class="cls-5" d="M72.08,68.94c-.17-.64-.37-1.27-.55-1.9-1.08-3.75-2.16-7.51-3.24-11.26-1.18-4.11-2.36-8.21-3.54-12.32-.31-1.08-.62-2.16-.93-3.24-.64-2.23-2.37-3.64-4.44-4.57-3.37-1.51-7.64-2.1-11.29-2.19-3.9-.09-7.89.52-11.58,1.79-.72.25-1.89-.41-2.63-.61-.87-.23-1.74-.43-2.62-.6-1.95-.36-3.92-.56-5.89-.59-3.78-.06-7.64.66-11.25,1.75-.79.3-.23.09-.05.02-2.25.85-4.72,2.24-5.43,4.71-.18.62-.36,1.24-.53,1.85-.9,3.12-1.8,6.25-2.7,9.37-1.23,4.27-2.46,8.54-3.69,12.81-.72,2.48-2.13,5.68-1.6,8.29.65,3.24,3.82,4.73,6.87,4.1,1.07-.22,2.06-.72,3.09-1.08,1.72-.61,3.47-1.13,5.26-1.5,4.3-.89,8.67-.42,12.89.67.94.24,4.48.85,4.58,1.91.09.98,1.23.72,1.94.72s1.42,0,2.12,0c.65,0,1.73.23,2.35-.05.62-.27.14-.94.72-1.19.79-.34,1.61-.63,2.44-.88,1.93-.6,3.9-1.05,5.9-1.34,4.27-.62,8.3-.17,12.4,1.12,2.4.76,4.73,2.15,7.33,1.69,3.55-.63,5-4.26,4.07-7.5Z"/>
    <path class="cls-6" d="M72.08,68.94c-.17-.64-.37-1.27-.55-1.9-1.08-3.75-2.16-7.51-3.24-11.26-1.18-4.11-2.36-8.21-3.54-12.32-.31-1.08-.62-2.16-.93-3.24-.64-2.23-2.37-3.64-4.44-4.57-3.37-1.51-7.64-2.1-11.29-2.19-3.9-.09-7.89.52-11.58,1.79-.72.25-1.89-.41-2.63-.61-.87-.23-1.74-.43-2.62-.6-1.95-.36-3.92-.56-5.89-.59-3.78-.06-7.64.66-11.25,1.75-.79.3-.23.09-.05.02-2.25.85-4.72,2.24-5.43,4.71-.18.62-.36,1.24-.53,1.85-.9,3.12-1.8,6.25-2.7,9.37-1.23,4.27-2.46,8.54-3.69,12.81-.72,2.48-2.13,5.68-1.6,8.29.65,3.24,3.82,4.73,6.87,4.1,1.07-.22,2.06-.72,3.09-1.08,1.72-.61,3.47-1.13,5.26-1.5,4.3-.89,8.67-.42,12.89.67.94.24,4.48.85,4.58,1.91.09.98,1.23.72,1.94.72s1.42,0,2.12,0c.65,0,1.73.23,2.35-.05.62-.27.14-.94.72-1.19.79-.34,1.61-.63,2.44-.88,1.93-.6,3.9-1.05,5.9-1.34,4.27-.62,8.3-.17,12.4,1.12,2.4.76,4.73,2.15,7.33,1.69,3.55-.63,5-4.26,4.07-7.5ZM34.44,38.57c-.05,2.73-.1,5.46-.15,8.19-.14,7.5-.28,15-.42,22.5,0,.5-.15.81-.71.8-3.04-1.81-6.64-2.85-10.13-3.29-4.1-.52-8.11.04-12.03,1.26-1.22.38-2.58,1.2-3.87,1.2-1.48,0-2.34-1.32-1.99-2.69.9-3.55,1.8-7.1,2.71-10.65,1.06-4.18,2.12-8.35,3.18-12.53.26-1.04.53-2.08.79-3.12.65-2.54,4.25-3.03,6.4-3.47,4.02-.83,8.08-.83,12.08.11M64.38,69.1c-3.31-1.37-6.95-2.34-10.53-2.52-4.07-.21-8.23.62-11.98,2.18-.42.18-3.25,2.21-3.37.77-.06-3.38-.12-6.75-.19-10.13-.13-6.98-.26-13.95-.39-20.93,0-.4.96-.6,1.16-.68,1.58-.6,3.23-1.01,4.9-1.28,4.06-.66,8.05-.32,12.02.69,1.95.5,4.07,1.14,4.62,3.31.31,1.22.62,2.43.93,3.65,1.87,7.37,3.74,14.73,5.61,22.1.47,1.84-.76,3.48-2.78,2.85Z"/>
  </g>
  <path class="cls-6" d="M57.83,29.58c-.33,0-.66-.04-1-.13-.58-.15-1.84-.43-3.4-.78-7.11-1.58-11.02-2.52-12.71-3.28-2-.89-2.89-3.23-2-5.23.89-2,3.24-2.9,5.23-2.01,1.29.57,8.24,2.12,11.2,2.78,1.68.38,3.04.68,3.67.84,2.12.55,3.39,2.71,2.84,4.83-.46,1.79-2.07,2.97-3.84,2.97Z"/>
  <path class="cls-1" d="M36.18,63c-1.32,0-2.61-.66-3.36-1.85-1.17-1.85-.61-4.3,1.25-5.47,1.34-.84,2.7-1.66,4.06-2.49,6.56-3.97,12.83-7.77,17.58-14.11-2.54.27-5.36.64-7.34.89-4.79.62-7.57.96-8.98.9-2.19-.1-3.88-1.95-3.79-4.13.1-2.19,1.96-3.87,4.13-3.79.88.05,4.62-.46,7.63-.84,14-1.81,16.64-1.92,18.49.68.9,1.26,1.03,2.91.34,4.31-5.9,11.96-15.49,17.76-23.95,22.88-1.33.8-2.65,1.6-3.95,2.42-.66.41-1.39.61-2.11.61Z"/>
  <path class="cls-4" d="M65.97,64.22c-6.98,0-10.58-1.01-12.64-3.38-2.2-2.53-1.62-5.55-1.28-7.36.46-2.43.37-2.47-1.91-3.4-2.03-.83-3-3.14-2.17-5.17.83-2.03,3.14-3,5.17-2.17,8.37,3.42,7.2,9.59,6.7,12.22-.04.23-.1.51-.14.76,1.04.32,3.82.79,10.85.45,2.19-.11,4.05,1.58,4.15,3.77.11,2.19-1.58,4.05-3.77,4.15-1.82.09-3.47.14-4.97.14Z"/>
  <path class="cls-6" d="M77.6,62.4c-1.04,0-3.19-.34-4.71-2.88-2.33-3.91-1.55-10.67,0-21.34.65-4.45,1.32-9.05,1.2-11.55-.11-2.23,1.61-4.13,3.84-4.24,2.22-.1,4.13,1.61,4.24,3.84.16,3.29-.53,8.07-1.27,13.12-.33,2.28-.8,5.47-1.1,8.43,1.28-2.49,2.41-3.96,4.65-4.18,1.5-.15,2.94.5,3.84,1.73,1.33,1.79.96,4.33-.84,5.66-.1.08-.21.15-.32.21-.31.59-.7,1.4-1.01,2.05-2.23,4.62-4.34,8.98-8.33,9.15-.06,0-.13,0-.2,0Z"/>
  <path class="cls-4" d="M95.72,64.31c-2.85,0-5.68-.78-7.72-2.04-3.03-1.89-4.48-4.86-3.88-7.95.84-4.3,3.47-7.31,7.41-8.48,1.92-.57,4.07-.65,6.26-.4,0-1.1,0-2.35.02-3.77.03-4.32.06-10.76-.15-12.45-.58-1.64-.04-3.53,1.44-4.61,1.81-1.31,4.34-.91,5.65.89,1.09,1.5,1.23,2.5,1.15,16.21-.01,1.82-.02,3.96-.02,5.82,3.93,1.53,7.1,3.45,8.06,4.45,1.55,1.61,1.51,4.17-.09,5.72-1.57,1.51-4.04,1.51-5.6.03-.36-.28-1.04-.68-1.92-1.14-.36,2.22-1.48,4.12-3.31,5.52-2.04,1.55-4.68,2.21-7.31,2.21ZM108.13,57.6s.05.05.08.08c-.03-.03-.05-.05-.08-.08ZM92.18,55.35c1.03.73,4,1.33,5.7.45.34-.17.76-.39.28-2.01-.02-.06-.03-.11-.05-.17-1.72-.33-3.32-.39-4.5.04-.52.19-1.1.5-1.44,1.69ZM98.21,30.25h0s0,0,0,0ZM98.2,30.24s0,0,0,0t0,0Z"/>
  <path class="cls-7" d="M96.8,30.48c-2.5,0-4.93-.07-6.91-.24-2.23-.2-3.87-2.16-3.67-4.39.2-2.23,2.16-3.87,4.39-3.67,6.2.55,17.91-.12,19.27-.33,2.2-.34,4.28,1.17,4.62,3.37s-1.14,4.27-3.34,4.62c-1.37.22-8.09.65-14.35.65Z"/>
  <path class="cls-7" d="M110.76,43.34s-.09,0-.14,0l-18.63-.63c-2.23-.08-3.98-1.95-3.91-4.18s1.95-3.99,4.18-3.91l18.63.63c2.23.08,3.98,1.95,3.91,4.18-.07,2.19-1.87,3.91-4.04,3.91Z"/>
  <g>
    <path class="cls-6" d="M118.94,61.33c-.71,0-1.42-.18-2.08-.57-1.96-1.15-2.62-3.67-1.47-5.63,2.8-4.77,6.2-14.84,8.94-22.92,1.26-3.71,2.45-7.22,3.42-9.76.82-2.12,3.2-3.18,5.32-2.36,2.12.82,3.18,3.2,2.36,5.32-.91,2.38-2.08,5.81-3.31,9.44-3.01,8.88-6.42,18.95-9.64,24.45-.77,1.31-2.14,2.04-3.55,2.04Z"/>
    <path class="cls-1" d="M137.4,55.75c-.93,0-1.87-.31-2.64-.96-1.75-1.46-1.98-4.05-.52-5.8,1.2-1.43,1.59-2.87,1.11-4.05-.36-.87-1.17-1.5-2.07-1.59-1.31-.13-2.79.87-4.04,2.75-1.26,1.89-3.81,2.4-5.71,1.14-1.89-1.26-2.4-3.81-1.14-5.71,3-4.5,7.27-6.83,11.72-6.38,3.95.4,7.35,2.95,8.87,6.67,1.64,4.01.74,8.66-2.41,12.43-.81.98-1.98,1.48-3.16,1.48Z"/>
    <path class="cls-4" d="M143.36,60.91c-4.96,0-8.92-3.31-9.99-8.44-.46-2.23.97-4.4,3.19-4.87,2.22-.46,4.4.97,4.87,3.19.28,1.36.96,1.95,2.14,1.87,1.55-.11,3.96-1.63,4.22-5.4.16-2.27,2.12-3.97,4.39-3.83,2.27.15,3.98,2.12,3.83,4.39-.55,8.07-6.39,12.68-11.87,13.05-.26.02-.52.03-.78.03Z"/>
  </g>
  <path class="cls-7" d="M182.83,13.53c-.08-3.48,1.95-4.82,5.17-4.89,3.16-.07,5.06,1.43,5.14,4.65l.17,7.35,17.27-.4c3.22-.08,5.19,1.43,5.27,4.78.08,3.35-1.82,5.01-5.04,5.08l-17.27.4.6,25.52c.18,7.61-3.84,9.7-10.8,9.86-4.06.09-7.36-.47-7.48-5.37-.06-2.51,1.25-4.35,3.9-4.41l1.93-.04c1.68-.04,2.11-.57,2.08-2.18l-.54-23.14-18.56.43c-3.22.08-5.19-1.49-5.27-4.84s1.82-4.94,5.04-5.02l18.56-.43-.17-7.35ZM160.12,54.62c-.03-1.35.59-2.33,2.09-4.37,2.75-3.74,5.11-7.73,7.2-11.91.92-1.96,1.85-3.46,4.24-3.52,2.38-.06,5.72,1.8,5.78,4.51.07,2.9-4.22,9.84-5.9,12.45-1.18,1.96-3.11,4.97-4.56,6.36-.89.79-1.84,1.27-3,1.29-2.64.06-5.78-1.93-5.85-4.83ZM203.05,34.27c1.42-.03,2.72.52,3.65,1.66,1.52,1.77,2.8,3.8,4.07,5.77,2.14,3.11,5.63,8.96,5.67,10.9.07,3.03-2.78,5.22-5.68,5.29-2.13.05-3.32-1.34-4.19-2.93-2.43-4.46-4.65-8.4-7.32-12.4-1.27-1.91-1.54-2.61-1.57-3.51-.06-2.77,2.79-4.71,5.37-4.77ZM216.66,12.42c.09,3.67-2.94,6.84-6.61,6.93-3.67.09-6.84-2.93-6.93-6.61-.09-3.67,2.94-6.84,6.61-6.93,3.67-.09,6.84,2.94,6.93,6.61ZM206.87,12.64c.04,1.68,1.43,3.06,3.1,3.02,1.68-.04,3-1.49,2.96-3.16-.04-1.61-1.42-3-3.1-2.96-1.68.04-3,1.49-2.96,3.1Z"/>
  <path class="cls-7" d="M241.67,54.63c-1.93,2.44-6.87,7.48-10.13,7.48-2.29,0-4.33-2.14-4.33-4.43,0-1.42.81-2.29,2.7-3.66,6.92-5.24,9.46-11.3,9.67-19.89h-9.87c-1.37,2.24-2.75,4.48-4.38,6.56-1.02,1.37-2.34,2.85-4.22,2.85-2.14,0-4.32-1.68-4.32-3.97,0-1.27.71-2.29,1.48-3.26,3.87-4.83,7.12-10.43,9.36-16.18.71-1.88,1.32-3.56,3.66-3.56,2.09,0,4.63,1.07,4.63,3.46,0,1.27-.92,3.66-2.14,6.26h23.41c2.44,0,3.97,1.37,3.97,3.92s-1.53,3.92-3.97,3.92h-9.21c-.15,7.43-1.68,14.55-6.31,20.5Z"/>
  <path class="cls-7" d="M255.61,37.1c1.31,0,1.82.79,2.81,2.5.48.83,1.07,1.78,1.58,2.73.48.91.83,1.82.83,2.42,0,1.54-1.66,2.57-3.05,2.57-1.27,0-1.62-.63-2.5-2.26-.59-1.15-1.19-2.22-1.82-3.25-.67-1.07-.91-1.66-.91-2.18,0-1.51,1.66-2.54,3.05-2.54ZM279.66,38.76c0,1.19-.4,2.73-.71,3.92-1.03,4.12-2.73,8.16-5.35,11.53-2.85,3.56-6.85,6.46-11.13,8-.67.24-1.35.48-2.06.48-1.55,0-2.69-1.62-2.69-3.09s.95-1.94,2.58-2.61c8.56-3.64,12-9.27,13.59-18.14.28-1.55.91-2.73,2.65-2.73,1.62,0,3.13.83,3.13,2.65ZM263.58,35.2c1.47,0,2.3,1.35,3.09,2.97.87,1.55,1.98,3.68,1.98,4.79,0,1.54-1.55,2.61-3.01,2.61-1.31,0-1.9-1.03-2.38-2.1-.59-1.35-1.27-2.69-2.02-3.96-.36-.56-.67-1.15-.67-1.78,0-1.55,1.58-2.54,3.01-2.54Z"/>
  <g>
    <path class="cls-7" d="M221.32,7.69c2.91,6.53-.04,14.2-6.57,17.11s-14.2-.04-17.11-6.57c-2.91-6.53.04-14.2,6.57-17.11,6.53-2.91,14.2.04,17.11,6.57Z"/>
    <circle class="cls-2" cx="209.48" cy="12.96" r="8.6"/>
    <rect class="cls-4" x="214.09" y="21.14" width="13.3" height="5.58" rx="2.79" ry="2.79" transform="translate(79.4 -147.3) rotate(44.28)"/>
    <path class="cls-3" d="M203.6,9.74c-1.46,3.01-.57,5.51.6,7.09"/>
    <circle class="cls-5" cx="205.66" cy="7.55" r="1.16"/>
  </g>
  <path class="cls-7" d="M316.11,40.88c1.61,1.09,3.47,2.48,3.46,4.64-.01,2.64-2.07,5.45-4.83,5.43-1.8,0-2.94-.98-5.86-2.85-4.54-2.9-9.15-5.51-14-7.69l-.12,22.38c-.02,3.36-1.65,4.85-5.01,4.83-3.3-.02-4.91-1.53-4.89-4.89l.24-44.76c.02-3.36,1.65-4.85,4.95-4.83,3.36.02,4.97,1.53,4.95,4.89l-.06,11.7c7.24,3.28,14.54,6.74,21.18,11.15Z"/>
</svg>