<?xml version="1.0" encoding="UTF-8"?>
<svg id="_レイヤー_1" data-name="レイヤー 1" xmlns="http://www.w3.org/2000/svg" xmlns:xlink="http://www.w3.org/1999/xlink" viewBox="0 0 255.17 142.48">
  <defs>
    <style>
      .cls-1 {
        fill: #f4b9c7;
      }

      .cls-2 {
        filter: url(#drop-shadow-1);
      }

      .cls-3 {
        fill: #ecd68f;
      }

      .cls-4, .cls-5, .cls-6, .cls-7, .cls-8, .cls-9, .cls-10, .cls-11, .cls-12, .cls-13, .cls-14 {
        stroke: #fff;
      }

      .cls-4, .cls-5, .cls-6, .cls-7, .cls-9, .cls-10, .cls-15, .cls-16, .cls-17, .cls-12, .cls-18, .cls-19, .cls-20, .cls-21, .cls-22, .cls-23 {
        stroke-linecap: round;
        stroke-linejoin: round;
      }

      .cls-4, .cls-5, .cls-6, .cls-7, .cls-10, .cls-24, .cls-13, .cls-14 {
        fill: #fff;
      }

      .cls-4, .cls-15, .cls-20, .cls-21 {
        stroke-width: 7.83px;
      }

      .cls-5, .cls-16, .cls-19, .cls-22 {
        stroke-width: 8.09px;
      }

      .cls-6, .cls-17, .cls-18, .cls-23 {
        stroke-width: 7.93px;
      }

      .cls-7, .cls-12 {
        stroke-width: 14px;
      }

      .cls-8 {
        stroke-width: 12px;
      }

      .cls-8, .cls-9, .cls-15, .cls-16, .cls-17, .cls-12, .cls-18, .cls-19, .cls-20, .cls-21, .cls-22, .cls-23 {
        fill: none;
      }

      .cls-8, .cls-13 {
        stroke-miterlimit: 10;
      }

      .cls-25 {
        fill: #f3da92;
      }

      .cls-9, .cls-10 {
        stroke-width: 2px;
      }

      .cls-26 {
        fill: #a4d2d7;
      }

      .cls-11 {
        fill: #edd774;
      }

      .cls-11, .cls-14 {
        stroke-width: 8px;
      }

      .cls-27 {
        fill: #def0f3;
      }

      .cls-15, .cls-16, .cls-17 {
        stroke: #a4d2d7;
      }

      .cls-18, .cls-19, .cls-20 {
        stroke: #f3da92;
      }

      .cls-28 {
        fill: #9cd3e2;
      }

      .cls-21, .cls-22, .cls-23 {
        stroke: #efb7c3;
      }
    </style>
    <filter id="drop-shadow-1" x="-1.57" y="-2.01" width="265" height="153" filterUnits="userSpaceOnUse">
      <feOffset dx="2.83" dy="2.83"/>
      <feGaussianBlur result="blur" stdDeviation="1.42"/>
      <feFlood flood-color="#d4b8b6" flood-opacity=".5"/>
      <feComposite in2="blur" operator="in"/>
      <feComposite in="SourceGraphic"/>
    </filter>
  </defs>
  <g class="cls-2">
    <rect class="cls-24" x="135.25" y="60.86" width="31.91" height="41.99"/>
    <path class="cls-13" d="M37.6,81.3c-5.65,0-10.52-3.17-12.73-8.28-1.73-3.98-1.29-8.04-.97-11,.05-.49.11-.97.14-1.42l1.78-24.96c.23-3.31,1.83-8.13,8.1-12.2.06-.04.12-.08.19-.12.16-.1.32-.2.48-.29,4.46-2.45,8.86-4.11,13.09-4.94,2.4-.47,4.85-.74,7.3-.81.38,0,.73-.01,1.08-.01.77,0,1.53.02,2.3.06.03,0,.06,0,.08,0,3.61-1.87,7.55-3.23,11.53-3.98,2.81-.53,5.69-.81,8.31-.81,2.34,0,4.54.22,6.54.65,6.37,1.36,9.5,5.03,11.01,7.86,0,0,11.28,21.18,13.12,24.63l.26.48c.24.45.49.9.72,1.36,1.98,3.78,2.32,8.15.92,12.01-1.33,3.66-4.06,6.48-7.71,7.96-1.77.72-3.71,1.08-5.76,1.08h0c-1.68,0-3.18-.24-4.38-.43-.46-.07-.93-.15-1.39-.2-.79-.08-1.56-.12-2.29-.12-2.24,0-4.3.36-6.31,1.11-1.3.48-2.58,1.06-3.8,1.71-.81,1.23-1.77,2.04-2.37,2.46-2.1,1.52-4.4,1.8-5.5,1.94h-.11s-1.79.39-1.79.39c-.65.18-1.78.47-3.16.47-1.84,0-3.57-.53-5.04-1.47-.04,0-.08,0-.12,0-.36,0-.65,0-.87-.02-.49-.02-.97-.03-1.45-.03-3,0-5.46.44-7.52,1.34-1.21.53-2.45,1.19-3.79,2.01-.18.11-.37.24-.57.37-.8.54-1.9,1.28-3.3,1.89-1.93.84-3.97,1.27-6.04,1.27Z"/>
    <path class="cls-13" d="M37.6,81.3c-5.65,0-10.52-3.17-12.73-8.28-1.73-3.98-1.29-8.04-.97-11,.05-.49.11-.97.14-1.42l1.78-24.96c.23-3.31,1.83-8.13,8.1-12.2.06-.04.12-.08.19-.12.16-.1.32-.2.48-.29,4.46-2.45,8.86-4.11,13.09-4.94,2.4-.47,4.85-.74,7.3-.81.38,0,.73-.01,1.08-.01.77,0,1.53.02,2.3.06.03,0,.06,0,.08,0,3.61-1.87,7.55-3.23,11.53-3.98,2.81-.53,5.69-.81,8.31-.81,2.34,0,4.54.22,6.54.65,6.37,1.36,9.5,5.03,11.01,7.86,0,0,11.28,21.18,13.12,24.63l.26.48c.24.45.49.9.72,1.36,1.98,3.78,2.32,8.15.92,12.01-1.33,3.66-4.06,6.48-7.71,7.96-1.77.72-3.71,1.08-5.76,1.08h0c-1.68,0-3.18-.24-4.38-.43-.46-.07-.93-.15-1.39-.2-.79-.08-1.56-.12-2.29-.12-2.24,0-4.3.36-6.31,1.11-1.3.48-2.58,1.06-3.8,1.71-.81,1.23-1.77,2.04-2.37,2.46-2.1,1.52-4.4,1.8-5.5,1.94h-.11s-1.79.39-1.79.39c-.65.18-1.78.47-3.16.47-1.84,0-3.57-.53-5.04-1.47-.04,0-.08,0-.12,0-.36,0-.65,0-.87-.02-.49-.02-.97-.03-1.45-.03-3,0-5.46.44-7.52,1.34-1.21.53-2.45,1.19-3.79,2.01-.18.11-.37.24-.57.37-.8.54-1.9,1.28-3.3,1.89-1.93.84-3.97,1.27-6.04,1.27ZM45.33,52.67c2.62-.87,5.25-1.42,7.93-1.64.49-.04.98-.07,1.47-.1l-2.61-13.55c-1.92.22-3.82.75-5.69,1.56l-.57.24-.53,13.48ZM75.5,46.51c2.37-.94,4.8-1.61,7.23-1.99.67-.11,1.35-.19,2.05-.26l-5.94-12.05c-.08,0-.16,0-.23,0-2.28,0-4.33.29-6.22.88l3.11,13.43Z"/>
    <path class="cls-14" d="M59,132.65c-4.63,0-8.43-1.86-10.88-5.12-1.03.44-2.01.69-2.83.83-.76.13-1.55.19-2.34.19-6.99,0-12.86-4.67-13.95-11.1-.73-4.34.96-7.51,2.33-10.05,1.14-2.14,2.19-4.41,3.16-6.85-5.36-1.02-9.28-5.11-10.27-10.99-1.32-7.78,3.3-14.15,11.23-15.5l9.96-1.69c-.71-7.28,3.8-12.94,11.53-14.25.94-.16,1.86-.24,2.75-.24,2.82,0,5.35.79,7.42,2.2,2.15-4.03,6.08-7.07,10.93-7.89.83-.14,1.67-.21,2.51-.21,7.38,0,13.87,5.47,15.1,12.72.44,2.61.19,5.25-.7,7.69.82,1.43,1.41,3.07,1.71,4.89.91,5.35-.97,10.03-4.78,12.89l.09.1c5.55,6.01,8.65,10.8,9.23,14.22,1.26,7.43-4.05,14.54-11.83,15.86-.71.12-1.43.18-2.14.18-2.05,0-4.76-.51-7.44-2.51-.84,5.89-4.65,12.19-16.4,14.18-1.71.29-3.11.42-4.41.42Z"/>
    <path class="cls-14" d="M105.08,126.84c-6.86,0-12.66-5.84-12.66-12.75,0-2.04.5-3.74,1.23-5.15-6.31-.69-11.24-5.91-11.24-12.24,0-4.28,2.27-7.16,3.24-8.39,3.25-4.07,5.92-8.67,7.74-13.35,2.22-5.86,6.07-8.84,11.44-8.84,6.32,0,11.45,3.94,12.67,9.33h12.19c7.14,0,12.31,5.16,12.31,12.27s-5.18,12.26-12.31,12.26h-1.12c-1.13,6.36-3.47,11.78-7.06,16.4-2.52,3.19-9.08,10.46-16.43,10.46Z"/>
    <path class="cls-14" d="M135.42,135.71c-6.28,0-11.59-5.52-11.59-12.05,0-2.85.91-5.27,2.73-7.24-2.44-1.6-3.72-3.99-4.49-5.42-.02-.04-.04-.07-.06-.11-.62-1.21-1.21-2.24-1.78-3.18-1.12-1.77-2.31-4.05-2.31-6.96,0-6.29,5.38-11.41,12-11.41.67,0,1.31.05,1.9.15,2.01-1.46,4.52-2.33,7.23-2.33,3.04,0,5.68,1.12,7.88,3.34,2.11-1.62,4.65-2.3,6.98-2.3,6.89,0,12.09,4.96,12.09,11.55,0,2.32-.56,4.64-1.09,6.63-1.59,6.33-4.17,11.82-7.65,16.31-.03.03-.05.07-.08.1-4.28,5.35-10.15,9.56-16.52,11.86-1.15.41-2.98,1.05-5.25,1.05Z"/>
    <path class="cls-14" d="M170.76,138.48c-.34,0-.69,0-1.05-.03-8.01-.45-13.1-6.11-12.65-14.09l2.5-44.69c.43-7.67,5.58-12.62,13.12-12.62.33,0,.68,0,1.03.03,3.95.22,7.13,1.59,9.44,4.08,1.65,1.78,3.56,4.96,3.28,10.01l-.35,6.21c5.54,2.95,11.43,6.36,16.85,10.37,1.77,1.33,7.03,5.28,6.64,12.12-.41,7.29-6.4,13.22-13.36,13.22-.23,0-.47,0-.71-.02-4.01-.22-6.55-2.08-9.01-3.87-.35-.26-.74-.54-1.17-.84-.32-.23-.64-.45-.95-.67l-.46,8.18c-.43,7.67-5.6,12.62-13.16,12.62Z"/>
    <path class="cls-13" d="M59,132.65c-4.63,0-8.43-1.86-10.88-5.12-1.03.44-2.01.69-2.83.83-.76.13-1.55.19-2.34.19-6.99,0-12.86-4.67-13.95-11.1-.73-4.34.96-7.51,2.33-10.05,1.14-2.14,2.19-4.41,3.16-6.85-5.36-1.02-9.28-5.11-10.27-10.99-1.32-7.78,3.3-14.15,11.23-15.5l9.96-1.69c-.71-7.28,3.8-12.94,11.53-14.25.94-.16,1.86-.24,2.75-.24,2.82,0,5.35.79,7.42,2.2,2.15-4.03,6.08-7.07,10.93-7.89.83-.14,1.67-.21,2.51-.21,7.38,0,13.87,5.47,15.1,12.72.44,2.61.19,5.25-.7,7.69.82,1.43,1.41,3.07,1.71,4.89.91,5.35-.97,10.03-4.78,12.89l.09.1c5.55,6.01,8.65,10.8,9.23,14.22,1.26,7.43-4.05,14.54-11.83,15.86-.71.12-1.43.18-2.14.18-2.05,0-4.76-.51-7.44-2.51-.84,5.89-4.65,12.19-16.4,14.18-1.71.29-3.11.42-4.41.42Z"/>
    <path class="cls-13" d="M105.08,126.84c-6.86,0-12.66-5.84-12.66-12.75,0-2.04.5-3.74,1.23-5.15-6.31-.69-11.24-5.91-11.24-12.24,0-4.28,2.27-7.16,3.24-8.39,3.25-4.07,5.92-8.67,7.74-13.35,2.22-5.86,6.07-8.84,11.44-8.84,6.32,0,11.45,3.94,12.67,9.33h12.19c7.14,0,12.31,5.16,12.31,12.27s-5.18,12.26-12.31,12.26h-1.12c-1.13,6.36-3.47,11.78-7.06,16.4-2.52,3.19-9.08,10.46-16.43,10.46Z"/>
    <path class="cls-13" d="M135.42,135.71c-6.28,0-11.59-5.52-11.59-12.05,0-2.85.91-5.27,2.73-7.24-2.44-1.6-3.72-3.99-4.49-5.42-.02-.04-.04-.07-.06-.11-.62-1.21-1.21-2.24-1.78-3.18-1.12-1.77-2.31-4.05-2.31-6.96,0-6.29,5.38-11.41,12-11.41.67,0,1.31.05,1.9.15,2.01-1.46,4.52-2.33,7.23-2.33,3.04,0,5.68,1.12,7.88,3.34,2.11-1.62,4.65-2.3,6.98-2.3,6.89,0,12.09,4.96,12.09,11.55,0,2.32-.56,4.64-1.09,6.63-1.59,6.33-4.17,11.82-7.65,16.31-.03.03-.05.07-.08.1-4.28,5.35-10.15,9.56-16.52,11.86-1.15.41-2.98,1.05-5.25,1.05Z"/>
    <path class="cls-13" d="M170.76,138.48c-.34,0-.69,0-1.05-.03-8.01-.45-13.1-6.11-12.65-14.09l2.5-44.69c.43-7.67,5.58-12.62,13.12-12.62.33,0,.68,0,1.03.03,3.95.22,7.13,1.59,9.44,4.08,1.65,1.78,3.56,4.96,3.28,10.01l-.35,6.21c5.54,2.95,11.43,6.36,16.85,10.37,1.77,1.33,7.03,5.28,6.64,12.12-.41,7.29-6.4,13.22-13.36,13.22-.23,0-.47,0-.71-.02-4.01-.22-6.55-2.08-9.01-3.87-.35-.26-.74-.54-1.17-.84-.32-.23-.64-.45-.95-.67l-.46,8.18c-.43,7.67-5.6,12.62-13.16,12.62Z"/>
    <path class="cls-7" d="M121.29,38.49c-1.02,0-2.06-.19-3.07-.58-.53-.21-1.7-.61-3.15-1.11-7.47-2.6-11.12-3.96-13.07-5.12-4.04-2.4-5.36-7.62-2.96-11.66,2.38-4,7.53-5.34,11.55-3.03,1.45.73,7.49,2.83,10.09,3.74,1.9.66,3.01,1.05,3.7,1.32,4.38,1.7,6.55,6.62,4.85,11-1.31,3.37-4.52,5.43-7.93,5.43ZM110.64,17.03s.04.02.06.04c-.02-.01-.04-.02-.06-.04Z"/>
    <path class="cls-7" d="M95.92,69.17c-3.18,0-6.22-1.79-7.68-4.84-2.02-4.24-.22-9.31,4.02-11.34,1.45-.69,2.92-1.36,4.39-2.03,2.38-1.09,4.67-2.13,6.85-3.25-1.28-.03-2.23-.1-3.01-.22-4.64-.75-7.79-5.11-7.04-9.75.74-4.59,5.02-7.72,9.6-7.06.99.09,4.48.04,7.04.01,14.47-.18,19.34-.23,22.32,5.17,1.56,2.82,1.43,6.26-.33,8.98-7.97,12.3-18.81,17.24-28.37,21.6-1.39.63-2.77,1.26-4.13,1.91-1.18.56-2.43.83-3.65.83ZM103.11,30.68s.06,0,.08.01c-.03,0-.05,0-.08-.01Z"/>
    <path class="cls-7" d="M130.13,74.26c-.19,0-.39,0-.58-.02-10.1-.68-17.06-2.13-20.55-7.23-2.66-3.88-1.99-7.9-1.33-10.27-3.37-2.5-4.45-7.16-2.37-10.93,2.27-4.11,7.44-5.61,11.56-3.33,6.12,3.38,8.88,8.16,8.23,14.25,1.35.19,3.18.39,5.61.56,4.69.32,8.23,4.37,7.91,9.06-.3,4.49-4.04,7.93-8.48,7.93ZM109.23,57.74h0,0Z"/>
    <path class="cls-7" d="M140.89,73.02c-.71,0-1.45-.08-2.21-.26-3.53-.81-6.25-3.51-7.27-7.24-1.64-5.93,1.17-12.81,5.88-23.56,1.64-3.74,3.5-7.97,3.95-10,1.02-4.58,5.56-7.48,10.15-6.46,4.58,1.02,7.47,5.56,6.46,10.15-.77,3.45-2.62,7.76-4.63,12.35,2.4.83,4.32,2.67,5.27,5.11,1.61,4.16-.27,8.82-4.22,10.73-.27.3-.54.62-.77.88-3.27,3.74-7.24,8.29-12.59,8.29ZM142.61,59.29h0Z"/>
    <path class="cls-7" d="M160.09,80.02c-5.42,0-10.74-2.65-13.82-5.99-3.67-3.98-4.58-9.23-2.36-13.71,2.68-5.4,7.53-8.57,13.3-8.69,1.04-.02,2.09.06,3.14.24.99-3.53,2.43-8.69,2.8-10.54.03-3.41,2.12-6.61,5.51-7.89,4.4-1.66,9.3.56,10.96,4.96,1.26,3.33.6,5.68-3.07,18.71-.24.86-.51,1.8-.77,2.75,2.71,2.32,4.68,4.58,5.42,5.93,2.26,4.12.74,9.29-3.38,11.54-2.85,1.56-6.2,1.32-8.74-.34-.99.79-2.11,1.45-3.35,1.94-1.83.74-3.74,1.06-5.64,1.06ZM157.12,65.75h0ZM163.69,44.4s0,0,0,0c0,0,0,0,0,0ZM163.69,44.4h0s0,0,0,0ZM163.69,44.39h0,0Z"/>
    <path class="cls-7" d="M180.91,50.34c-.31,0-.62-.02-.93-.05-2.29-.25-14.85-2.95-21.69-5.5-4.4-1.64-6.64-6.54-5-10.94,1.64-4.4,6.54-6.64,10.94-5,5.26,1.96,15.87,4.28,17.66,4.54,4.63.54,7.96,4.72,7.46,9.36-.47,4.36-4.16,7.59-8.44,7.59Z"/>
    <path class="cls-7" d="M175.04,63l-17.8-5.54c-4.48-1.4-6.99-6.16-5.59-10.65,1.4-4.48,6.16-6.99,10.65-5.59l17.79,5.54-5.06,16.24Z"/>
    <path class="cls-7" d="M183.33,85.13c-2.66,0-5.27-1.24-6.93-3.57-2.73-3.82-1.84-9.13,1.99-11.86,3.9-2.78,10.88-10.31,15.98-15.81,2.68-2.89,5-5.39,6.89-7.27,3.33-3.31,8.71-3.3,12.03.03,3.31,3.33,3.3,8.71-.03,12.03-1.65,1.64-3.97,4.14-6.41,6.78-6.22,6.7-13.26,14.3-18.58,18.09-1.5,1.07-3.22,1.58-4.93,1.58Z"/>
    <path class="cls-7" d="M201.52,87.47c-3.15,0-6.18-1.76-7.65-4.78-1.04-2.13-1.11-4.49-.37-6.57-2.46-.29-4.78-1.65-6.2-3.91-2.5-3.97-1.31-9.22,2.67-11.73,5.84-3.68,12.17-4.07,17.38-1.07,4.75,2.73,7.59,7.85,7.41,13.37-.2,5.85-3.75,11.02-9.51,13.83-1.2.59-2.47.86-3.72.86Z"/>
    <path class="cls-7" d="M207.62,94.87c-1.9,0-3.75-.33-5.44-.95-6.9-2.54-10.58-9.44-8.97-16.78,1.01-4.58,5.53-7.46,10.11-6.46,2.73.59,4.87,2.45,5.94,4.82,2.54-2.94,6.86-3.84,10.43-1.94,4.15,2.21,5.72,7.36,3.51,11.5-3.64,6.84-9.85,9.81-15.58,9.81Z"/>
    <path class="cls-6" d="M121.29,38.49c-1.02,0-2.06-.19-3.07-.58-.53-.21-1.7-.61-3.15-1.11-7.47-2.6-11.12-3.96-13.07-5.12-4.04-2.4-5.36-7.62-2.96-11.66,2.38-4,7.53-5.34,11.55-3.03,1.45.73,7.49,2.83,10.09,3.74,1.9.66,3.01,1.05,3.7,1.32,4.38,1.7,6.55,6.62,4.85,11-1.31,3.37-4.52,5.43-7.93,5.43ZM110.64,17.03s.04.02.06.04c-.02-.01-.04-.02-.06-.04Z"/>
    <path class="cls-6" d="M95.92,69.17c-3.18,0-6.22-1.79-7.68-4.84-2.02-4.24-.22-9.31,4.02-11.34,1.45-.69,2.92-1.36,4.39-2.03,2.38-1.09,4.67-2.13,6.85-3.25-1.28-.03-2.23-.1-3.01-.22-4.64-.75-7.79-5.11-7.04-9.75.74-4.59,5.02-7.72,9.6-7.06.99.09,4.48.04,7.04.01,14.47-.18,19.34-.23,22.32,5.17,1.56,2.82,1.43,6.26-.33,8.98-7.97,12.3-18.81,17.24-28.37,21.6-1.39.63-2.77,1.26-4.13,1.91-1.18.56-2.43.83-3.65.83ZM103.11,30.68s.06,0,.08.01c-.03,0-.05,0-.08-.01Z"/>
    <path class="cls-6" d="M130.13,74.26c-.19,0-.39,0-.58-.02-10.1-.68-17.06-2.13-20.55-7.23-2.66-3.88-1.99-7.9-1.33-10.27-3.37-2.5-4.45-7.16-2.37-10.93,2.27-4.11,7.44-5.61,11.56-3.33,6.12,3.38,8.88,8.16,8.23,14.25,1.35.19,3.18.39,5.61.56,4.69.32,8.23,4.37,7.91,9.06-.3,4.49-4.04,7.93-8.48,7.93ZM109.23,57.74h0,0Z"/>
    <path class="cls-5" d="M140.89,73.02c-.71,0-1.45-.08-2.21-.26-3.53-.81-6.25-3.51-7.27-7.24-1.64-5.93,1.17-12.81,5.88-23.56,1.64-3.74,3.5-7.97,3.95-10,1.02-4.58,5.56-7.48,10.15-6.46,4.58,1.02,7.47,5.56,6.46,10.15-.77,3.45-2.62,7.76-4.63,12.35,2.4.83,4.32,2.67,5.27,5.11,1.61,4.16-.27,8.82-4.22,10.73-.27.3-.54.62-.77.88-3.27,3.74-7.24,8.29-12.59,8.29ZM142.61,59.29h0Z"/>
    <path class="cls-5" d="M160.09,80.02c-5.42,0-10.74-2.65-13.82-5.99-3.67-3.98-4.58-9.23-2.36-13.71,2.68-5.4,7.53-8.57,13.3-8.69,1.04-.02,2.09.06,3.14.24.99-3.53,2.43-8.69,2.8-10.54.03-3.41,2.12-6.61,5.51-7.89,4.4-1.66,9.3.56,10.96,4.96,1.26,3.33.6,5.68-3.07,18.71-.24.86-.51,1.8-.77,2.75,2.71,2.32,4.68,4.58,5.42,5.93,2.26,4.12.74,9.29-3.38,11.54-2.85,1.56-6.2,1.32-8.74-.34-.99.79-2.11,1.45-3.35,1.94-1.83.74-3.74,1.06-5.64,1.06ZM157.12,65.75h0ZM163.69,44.4s0,0,0,0c0,0,0,0,0,0ZM163.69,44.4h0s0,0,0,0ZM163.69,44.39h0,0Z"/>
    <path class="cls-5" d="M180.91,50.34c-.31,0-.62-.02-.93-.05-2.29-.25-14.85-2.95-21.69-5.5-4.4-1.64-6.64-6.54-5-10.94,1.64-4.4,6.54-6.64,10.94-5,5.26,1.96,15.87,4.28,17.66,4.54,4.63.54,7.96,4.72,7.46,9.36-.47,4.36-4.16,7.59-8.44,7.59Z"/>
    <path class="cls-5" d="M175.04,63l-17.8-5.54c-4.48-1.4-6.99-6.16-5.59-10.65,1.4-4.48,6.16-6.99,10.65-5.59l17.79,5.54-5.06,16.24Z"/>
    <path class="cls-4" d="M183.33,85.13c-2.66,0-5.27-1.24-6.93-3.57-2.73-3.82-1.84-9.13,1.99-11.86,3.9-2.78,10.88-10.31,15.98-15.81,2.68-2.89,5-5.39,6.89-7.27,3.33-3.31,8.71-3.3,12.03.03,3.31,3.33,3.3,8.71-.03,12.03-1.65,1.64-3.97,4.14-6.41,6.78-6.22,6.7-13.26,14.3-18.58,18.09-1.5,1.07-3.22,1.58-4.93,1.58Z"/>
    <path class="cls-4" d="M201.52,87.47c-3.15,0-6.18-1.76-7.65-4.78-1.04-2.13-1.11-4.49-.37-6.57-2.46-.29-4.78-1.65-6.2-3.91-2.5-3.97-1.31-9.22,2.67-11.73,5.84-3.68,12.17-4.07,17.38-1.07,4.75,2.73,7.59,7.85,7.41,13.37-.2,5.85-3.75,11.02-9.51,13.83-1.2.59-2.47.86-3.72.86Z"/>
    <path class="cls-4" d="M207.62,94.87c-1.9,0-3.75-.33-5.44-.95-6.9-2.54-10.58-9.44-8.97-16.78,1.01-4.58,5.53-7.46,10.11-6.46,2.73.59,4.87,2.45,5.94,4.82,2.54-2.94,6.86-3.84,10.43-1.94,4.15,2.21,5.72,7.36,3.51,11.5-3.64,6.84-9.85,9.81-15.58,9.81Z"/>
    <path class="cls-13" d="M80.54,87.34c-8.48,0-16.18-5-19.63-12.73-4.81-10.81.07-23.52,10.88-28.33,2.76-1.23,5.69-1.85,8.71-1.85,8.48,0,16.18,5,19.62,12.73,4.81,10.81-.07,23.52-10.88,28.33-2.76,1.23-5.69,1.85-8.71,1.85Z"/>
    <path class="cls-13" d="M80.53,82.98c-6.75,0-12.89-3.98-15.63-10.15-1.86-4.17-1.98-8.82-.34-13.09,1.64-4.27,4.84-7.64,9.01-9.5,2.21-.98,4.55-1.48,6.95-1.48,6.75,0,12.89,3.99,15.63,10.15,3.83,8.61-.05,18.75-8.67,22.58-2.21.98-4.55,1.48-6.95,1.48Z"/>
    <path class="cls-13" d="M94.55,90.84c-2.96,0-5.76-1.14-7.89-3.21l-5.52-5.39c-2.16-2.1-3.37-4.93-3.41-7.94-.04-3.02,1.1-5.87,3.21-8.03,2.11-2.17,5.06-3.41,8.09-3.41s5.76,1.14,7.89,3.21l5.52,5.38c4.46,4.35,4.55,11.51.2,15.97-2.12,2.17-5.06,3.41-8.09,3.41Z"/>
    <path class="cls-10" d="M75.24,78.25c-2.6,0-5.17-1.19-6.84-3.45-3.44-4.65-3.97-10.57-1.42-15.85,2.04-4.23,7.13-6,11.36-3.96,3.96,1.92,5.77,6.5,4.3,10.55,2.1,3.69,1.16,8.44-2.34,11.03-1.52,1.13-3.29,1.67-5.05,1.67Z"/>
    <path class="cls-13" d="M76.7,70.13c-5.06,0-9.3-3.96-9.64-9.01-.17-2.57.67-5.06,2.36-7,1.7-1.94,4.05-3.11,6.63-3.28.19-.01.46-.02.65-.02,5.06,0,9.3,3.96,9.64,9.01.17,2.57-.67,5.06-2.36,7-1.7,1.94-4.05,3.11-6.63,3.28-.19.01-.46.02-.65.02Z"/>
    <path class="cls-13" d="M80.54,87.34c-8.48,0-16.18-5-19.63-12.73-4.81-10.81.07-23.52,10.88-28.33,2.76-1.23,5.69-1.85,8.71-1.85,8.48,0,16.18,5,19.62,12.73,4.81,10.81-.07,23.52-10.88,28.33-2.76,1.23-5.69,1.85-8.71,1.85Z"/>
    <path class="cls-13" d="M80.53,82.98c-6.75,0-12.89-3.98-15.63-10.15-1.86-4.17-1.98-8.82-.34-13.09,1.64-4.27,4.84-7.64,9.01-9.5,2.21-.98,4.55-1.48,6.95-1.48,6.75,0,12.89,3.99,15.63,10.15,3.83,8.61-.05,18.75-8.67,22.58-2.21.98-4.55,1.48-6.95,1.48Z"/>
    <path class="cls-13" d="M94.55,90.84c-2.96,0-5.76-1.14-7.89-3.21l-5.52-5.39c-2.16-2.1-3.37-4.93-3.41-7.94-.04-3.02,1.1-5.87,3.21-8.03,2.11-2.17,5.06-3.41,8.09-3.41s5.76,1.14,7.89,3.21l5.52,5.38c4.46,4.35,4.55,11.51.2,15.97-2.12,2.17-5.06,3.41-8.09,3.41Z"/>
    <path class="cls-10" d="M75.24,78.25c-2.6,0-5.17-1.19-6.84-3.45-3.44-4.65-3.97-10.57-1.42-15.85,2.04-4.23,7.13-6,11.36-3.96,3.96,1.92,5.77,6.5,4.3,10.55,2.1,3.69,1.16,8.44-2.34,11.03-1.52,1.13-3.29,1.67-5.05,1.67Z"/>
    <path class="cls-13" d="M76.7,70.13c-5.06,0-9.3-3.96-9.64-9.01-.17-2.57.67-5.06,2.36-7,1.7-1.94,4.05-3.11,6.63-3.28.19-.01.46-.02.65-.02,5.06,0,9.3,3.96,9.64,9.01.17,2.57-.67,5.06-2.36,7-1.7,1.94-4.05,3.11-6.63,3.28-.19.01-.46.02-.65.02Z"/>
    <path class="cls-24" d="M102.62,52.3c-.3-.59-.62-1.17-.93-1.75-1.83-3.45-3.67-6.89-5.51-10.34-2.01-3.77-4.02-7.54-6.02-11.31-.53-.99-1.06-1.98-1.58-2.97-1.09-2.04-3.08-3.07-5.29-3.55-3.6-.77-7.91-.47-11.5.2-3.83.72-7.61,2.15-10.95,4.15-.65.39-1.94,0-2.7-.05-.9-.05-1.79-.06-2.69-.04-1.98.05-3.95.27-5.89.65-3.71.73-7.33,2.24-10.64,4.05-.72.46-.2.13-.05.03-2.03,1.3-4.15,3.17-4.33,5.74-.05.64-.09,1.28-.14,1.92-.23,3.24-.46,6.48-.69,9.73-.32,4.43-.63,8.87-.95,13.3-.18,2.58-.91,6,.15,8.44,1.31,3.03,4.71,3.83,7.58,2.58,1-.44,1.87-1.13,2.79-1.7,1.55-.96,3.16-1.83,4.83-2.56,4.02-1.77,8.39-2.21,12.75-2.02.97.04,4.56-.1,4.88.92.3.94,1.35.44,2.05.3s1.38-.29,2.08-.44c.64-.13,1.74-.14,2.29-.53.55-.39-.06-.95.46-1.32.7-.5,1.45-.95,2.2-1.37,1.76-.99,3.6-1.83,5.49-2.53,4.05-1.5,8.09-1.89,12.37-1.48,2.5.24,5.07,1.12,7.52.13,3.34-1.35,4.01-5.2,2.43-8.18Z"/>
    <path class="cls-8" d="M222.46,56.05h0c-.22-.79.17-1.63.93-1.96l22.04-9.59c.88-.38,1.9.07,2.22.97l1.44,4.16c.32.93-.23,1.92-1.19,2.14l-23.47,5.43c-.86.2-1.72-.31-1.96-1.16Z"/>
    <path class="cls-8" d="M215.18,44.33h0c-.59-.58-.66-1.5-.17-2.16l14.29-19.32c.57-.77,1.68-.89,2.41-.26l3.33,2.89c.74.64.76,1.78.04,2.45l-17.61,16.44c-.64.6-1.65.59-2.28-.03Z"/>
    <path class="cls-8" d="M201.96,38.47h0c-.8-.2-1.32-.97-1.23-1.78l2.71-23.88c.11-.96,1.01-1.62,1.95-1.43l4.32.84c.96.19,1.55,1.16,1.26,2.1l-7.04,23.04c-.26.84-1.13,1.33-1.99,1.12Z"/>
    <path class="cls-8" d="M9.5,21.4l5.72-2.81c1.89-.92,3.13-2.85,3.26-5.03l.39-6.63c.03-.46.35-.84.78-.92s.87.15,1.06.57l2.78,6.03c.92,1.99,2.78,3.32,4.87,3.5l6.35.53c.44.04.81.38.89.83s-.13.9-.53,1.1l-5.72,2.81c-1.89.92-3.13,2.85-3.26,5.03l-.39,6.63c-.03.46-.35.84-.78.92s-.87-.15-1.06-.57l-2.78-6.03c-.92-1.99-2.78-3.32-4.87-3.5l-6.35-.53c-.44-.04-.81-.38-.89-.83s.13-.9.53-1.1Z"/>
    <path class="cls-8" d="M6.33,41.96l3.49-1.71c1.15-.56,1.91-1.74,1.99-3.07l.24-4.05c.02-.28.21-.51.48-.56s.53.09.65.35l1.7,3.68c.56,1.21,1.7,2.03,2.98,2.13l3.88.32c.27.02.49.23.54.51s-.08.55-.32.67l-3.49,1.71c-1.15.56-1.91,1.74-1.99,3.07l-.24,4.05c-.02.28-.21.51-.48.56s-.53-.09-.65-.35l-1.7-3.68c-.56-1.21-1.7-2.03-2.98-2.14l-3.88-.32c-.27-.02-.49-.23-.54-.51-.05-.28.08-.55.32-.67Z"/>
    <path class="cls-11" d="M130.15,98.71c1.5,0,2.09.91,3.23,2.86.54.95,1.23,2.04,1.82,3.13.54,1.04.95,2.09.95,2.77,0,1.77-1.91,2.95-3.5,2.95-1.45,0-1.86-.73-2.86-2.59-.68-1.32-1.36-2.54-2.09-3.73-.77-1.23-1.04-1.91-1.04-2.5,0-1.73,1.91-2.91,3.5-2.91ZM157.73,100.62c0,1.36-.45,3.14-.82,4.5-1.18,4.73-3.14,9.36-6.13,13.22-3.27,4.09-7.86,7.41-12.77,9.18-.77.27-1.54.54-2.36.54-1.77,0-3.09-1.86-3.09-3.54s1.09-2.23,2.95-3c9.81-4.18,13.77-10.63,15.59-20.81.32-1.77,1.04-3.14,3.04-3.14,1.86,0,3.59.95,3.59,3.04ZM139.29,96.53c1.68,0,2.63,1.54,3.54,3.41,1,1.77,2.27,4.23,2.27,5.5,0,1.77-1.77,3-3.45,3-1.5,0-2.18-1.18-2.73-2.41-.68-1.54-1.45-3.09-2.32-4.54-.41-.64-.77-1.32-.77-2.04,0-1.77,1.82-2.91,3.45-2.91Z"/>
    <path class="cls-12" d="M106.59,25.23c2.14,1.27,12.88,4.81,14.94,5.61"/>
    <path class="cls-12" d="M102.07,39.95c3.2.52,24.3-.75,23.09,1.11-7.68,11.85-18.83,15.6-29.02,20.46"/>
    <path class="cls-12" d="M112.97,50.77c12.2,6.73-10.12,13.99,17.38,15.84"/>
    <path class="cls-12" d="M149.75,34.69c-1.62,7.28-11.42,24.01-9.93,29.45,1.5,5.43,10.22-8.93,10.94-7.06"/>
    <path class="cls-12" d="M171.88,42.27c.49,1.31-6.06,22.09-6.02,24.04.2,11.28-16.94,4.37-14.1-1.35,5.37-10.83,21.08,3.73,22.21,5.79"/>
    <path class="cls-12" d="M161.49,37.68c6.15,2.29,18,4.84,19.64,5.02"/>
    <path class="cls-12" d="M160.01,50.2c3.7,1.15,17.8,5.54,17.8,5.54"/>
    <path class="cls-12" d="M207.49,53.51c-5.76,5.73-17.27,19.23-23.93,23.97"/>
    <path class="cls-12" d="M194.73,68.54c10.17-6.4,16.69,6.57,7.02,11.28"/>
    <path class="cls-12" d="M201.75,79.83c-1.75,7.96,9.56,10.74,14.17,2.09"/>
  </g>
  <path class="cls-28" d="M222.66,56.44h0c-.22-.79.17-1.63.93-1.96l22.04-9.59c.88-.38,1.9.07,2.22.97l1.44,4.16c.32.93-.23,1.92-1.19,2.14l-23.47,5.43c-.86.2-1.72-.31-1.96-1.16Z"/>
  <path class="cls-28" d="M215.38,44.71h0c-.59-.58-.66-1.5-.17-2.16l14.29-19.32c.57-.77,1.68-.89,2.41-.26l3.33,2.89c.74.64.76,1.78.04,2.45l-17.61,16.44c-.64.6-1.65.59-2.28-.03Z"/>
  <path class="cls-28" d="M202.15,38.85h0c-.8-.2-1.32-.97-1.23-1.78l2.71-23.88c.11-.96,1.01-1.62,1.95-1.43l4.32.84c.96.19,1.55,1.16,1.26,2.1l-7.04,23.04c-.26.84-1.13,1.33-1.99,1.12Z"/>
  <path class="cls-1" d="M102.62,52.3c-.3-.59-.62-1.17-.93-1.75-1.83-3.45-3.67-6.89-5.51-10.34-2.01-3.77-4.02-7.54-6.02-11.31-.53-.99-1.06-1.98-1.58-2.97-1.09-2.04-3.08-3.07-5.29-3.55-3.6-.77-7.91-.47-11.5.2-3.83.72-7.61,2.15-10.95,4.15-.65.39-1.94,0-2.7-.05-.9-.05-1.79-.06-2.69-.04-1.98.05-3.95.27-5.89.65-3.71.73-7.33,2.24-10.64,4.05-.72.46-.2.13-.05.03-2.03,1.3-4.15,3.17-4.33,5.74-.05.64-.09,1.28-.14,1.92-.23,3.24-.46,6.48-.69,9.73-.32,4.43-.63,8.87-.95,13.3-.18,2.58-.91,6,.15,8.44,1.31,3.03,4.71,3.83,7.58,2.58,1-.44,1.87-1.13,2.79-1.7,1.55-.96,3.16-1.83,4.83-2.56,4.02-1.77,8.39-2.21,12.75-2.02.97.04,4.56-.1,4.88.92.3.94,1.35.44,2.05.3s1.38-.29,2.08-.44c.64-.13,1.74-.14,2.29-.53.55-.39-.06-.95.46-1.32.7-.5,1.45-.95,2.2-1.37,1.76-.99,3.6-1.83,5.49-2.53,4.05-1.5,8.09-1.89,12.37-1.48,2.5.24,5.07,1.12,7.52.13,3.34-1.35,4.01-5.2,2.43-8.18ZM59.49,30.41c.52,2.68,1.03,5.36,1.55,8.04,1.42,7.36,2.84,14.73,4.26,22.09.1.49.03.83-.53.93-3.35-1.14-7.09-1.41-10.59-1.11-4.11.34-7.92,1.72-11.51,3.73-1.11.62-2.28,1.71-3.54,1.98-1.45.31-2.56-.8-2.51-2.22.15-3.66.29-7.32.43-10.98.17-4.3.34-8.61.51-12.91.04-1.07.08-2.14.13-3.22.1-2.62,3.53-3.84,5.53-4.73,3.76-1.65,7.74-2.49,11.84-2.4M95.12,54.05c-3.52-.66-7.28-.84-10.82-.28-4.02.64-7.92,2.32-11.27,4.62-.38.26-2.72,2.84-3.14,1.45-.76-3.29-1.52-6.58-2.29-9.87-1.57-6.8-3.15-13.59-4.72-20.39-.09-.39.81-.79.99-.9,1.42-.91,2.95-1.66,4.53-2.27,3.83-1.49,7.81-1.98,11.9-1.82,2.01.08,4.22.27,5.21,2.27.56,1.13,1.11,2.25,1.67,3.38,3.36,6.82,6.72,13.64,10.08,20.45.84,1.7-.02,3.56-2.12,3.36Z"/>
  <path class="cls-3" d="M9.5,21.4l5.72-2.81c1.89-.92,3.13-2.85,3.26-5.03l.39-6.63c.03-.46.35-.84.78-.92s.87.15,1.06.57l2.78,6.03c.92,1.99,2.78,3.32,4.87,3.5l6.35.53c.44.04.81.38.89.83s-.13.9-.53,1.1l-5.72,2.81c-1.89.92-3.13,2.85-3.26,5.03l-.39,6.63c-.03.46-.35.84-.78.92s-.87-.15-1.06-.57l-2.78-6.03c-.92-1.99-2.78-3.32-4.87-3.5l-6.35-.53c-.44-.04-.81-.38-.89-.83s.13-.9.53-1.1Z"/>
  <path class="cls-3" d="M6.33,41.96l3.49-1.71c1.15-.56,1.91-1.74,1.99-3.07l.24-4.05c.02-.28.21-.51.48-.56s.53.09.65.35l1.7,3.68c.56,1.21,1.7,2.03,2.98,2.13l3.88.32c.27.02.49.23.54.51s-.08.55-.32.67l-3.49,1.71c-1.15.56-1.91,1.74-1.99,3.07l-.24,4.05c-.02.28-.21.51-.48.56s-.53-.09-.65-.35l-1.7-3.68c-.56-1.21-1.7-2.03-2.98-2.14l-3.88-.32c-.27-.02-.49-.23-.54-.51-.05-.28.08-.55.32-.67Z"/>
  <path class="cls-25" d="M54.19,72.97c-.58-3.43,1.24-5.05,4.42-5.59,3.12-.53,5.22.69,5.75,3.87l1.23,7.25,17.04-2.88c3.18-.54,5.34.67,5.9,3.97.56,3.3-1.08,5.22-4.26,5.75l-17.04,2.88,4.26,25.17c1.27,7.5-2.4,10.15-9.27,11.31-4,.68-7.35.59-8.17-4.24-.42-2.48.61-4.49,3.22-4.93l1.91-.32c1.65-.28,2.01-.86,1.74-2.45l-3.86-22.82-18.31,3.1c-3.18.54-5.35-.73-5.91-4.03s1.09-5.15,4.27-5.69l18.31-3.1-1.23-7.25ZM37.63,116.9c-.23-1.33.25-2.4,1.44-4.62,2.18-4.1,3.94-8.38,5.42-12.82.63-2.07,1.34-3.69,3.69-4.09,2.35-.4,5.92.96,6.37,3.63.48,2.86-2.76,10.34-4.05,13.17-.88,2.11-2.36,5.37-3.6,6.95-.76.91-1.64,1.52-2.78,1.71-2.61.44-6-1.08-6.49-3.94ZM77.18,90.59c1.4-.24,2.77.12,3.85,1.11,1.76,1.53,3.32,3.36,4.86,5.13,2.56,2.77,6.86,8.06,7.18,9.97.5,2.99-2,5.57-4.86,6.05-2.1.35-3.48-.85-4.57-2.3-3.04-4.06-5.81-7.65-9.03-11.22-1.53-1.7-1.9-2.36-2.05-3.25-.46-2.73,2.09-5.06,4.63-5.49ZM87.51,67.01c.61,3.62-1.92,7.19-5.55,7.8-3.62.61-7.19-1.92-7.8-5.54-.61-3.62,1.92-7.19,5.54-7.8,3.62-.61,7.19,1.92,7.8,5.54ZM77.85,68.64c.28,1.65,1.85,2.83,3.5,2.55,1.65-.28,2.75-1.9,2.47-3.56-.27-1.59-1.84-2.76-3.49-2.48-1.65.28-2.75,1.9-2.48,3.49Z"/>
  <path class="cls-25" d="M115.03,112.02c-1.86,2.34-6.59,7.18-9.72,7.18-2.2,0-4.15-2.05-4.15-4.25,0-1.37.78-2.2,2.59-3.52,6.64-5.03,9.08-10.84,9.28-19.1h-9.48c-1.32,2.15-2.64,4.3-4.2,6.3-.98,1.32-2.25,2.74-4.05,2.74-2.05,0-4.15-1.61-4.15-3.81,0-1.22.68-2.2,1.42-3.13,3.71-4.64,6.84-10.01,8.99-15.53.68-1.81,1.27-3.42,3.52-3.42,2,0,4.45,1.03,4.45,3.32,0,1.22-.88,3.52-2.05,6.01h22.47c2.34,0,3.81,1.32,3.81,3.76s-1.47,3.76-3.81,3.76h-8.84c-.15,7.13-1.61,13.97-6.06,19.68Z"/>
  <path class="cls-25" d="M130.15,98.71c1.5,0,2.09.91,3.23,2.86.54.95,1.23,2.04,1.82,3.13.54,1.04.95,2.09.95,2.77,0,1.77-1.91,2.95-3.5,2.95-1.45,0-1.86-.73-2.86-2.59-.68-1.32-1.36-2.54-2.09-3.73-.77-1.23-1.04-1.91-1.04-2.5,0-1.73,1.91-2.91,3.5-2.91ZM157.73,100.62c0,1.36-.45,3.14-.82,4.5-1.18,4.73-3.14,9.36-6.13,13.22-3.27,4.09-7.86,7.41-12.77,9.18-.77.27-1.54.54-2.36.54-1.77,0-3.09-1.86-3.09-3.54s1.09-2.23,2.95-3c9.81-4.18,13.77-10.63,15.59-20.81.32-1.77,1.04-3.14,3.04-3.14,1.86,0,3.59.95,3.59,3.04ZM139.29,96.53c1.68,0,2.63,1.54,3.54,3.41,1,1.77,2.27,4.23,2.27,5.5,0,1.77-1.77,3-3.45,3-1.5,0-2.18-1.18-2.73-2.41-.68-1.54-1.45-3.09-2.32-4.54-.41-.64-.77-1.32-.77-2.04,0-1.77,1.82-2.91,3.45-2.91Z"/>
  <path class="cls-23" d="M106.59,25.23c2.14,1.27,12.88,4.81,14.94,5.61"/>
  <path class="cls-18" d="M102.07,39.95c3.2.52,24.3-.75,23.09,1.11-7.68,11.85-18.83,15.6-29.02,20.46"/>
  <path class="cls-17" d="M112.97,50.77c12.2,6.73-10.12,13.99,17.38,15.84"/>
  <path class="cls-22" d="M149.75,34.69c-1.62,7.28-11.42,24.01-9.93,29.45,1.5,5.43,10.22-8.93,10.94-7.06"/>
  <path class="cls-16" d="M171.88,42.27c.49,1.31-6.06,22.09-6.02,24.04.2,11.28-16.94,4.37-14.1-1.35,5.37-10.83,21.08,3.73,22.21,5.79"/>
  <path class="cls-19" d="M161.49,37.68c6.15,2.29,18,4.84,19.64,5.02"/>
  <path class="cls-19" d="M160.01,50.2c3.7,1.15,17.8,5.54,17.8,5.54"/>
  <path class="cls-21" d="M207.49,53.51c-5.76,5.73-17.27,19.23-23.93,23.97"/>
  <path class="cls-20" d="M194.73,68.54c10.17-6.4,16.69,6.57,7.02,11.28"/>
  <path class="cls-25" d="M198.1,105.45c1.56,1.17,3.34,2.65,3.22,4.81-.15,2.64-2.34,5.34-5.1,5.18-1.8-.1-2.88-1.12-5.71-3.14-4.39-3.13-8.86-5.96-13.59-8.39l-1.25,22.35c-.19,3.35-1.89,4.76-5.24,4.57-3.29-.18-4.83-1.77-4.64-5.13l2.5-44.69c.19-3.35,1.89-4.76,5.18-4.58,3.35.19,4.89,1.78,4.7,5.13l-.65,11.68c7.07,3.64,14.18,7.47,20.59,12.21Z"/>
  <path class="cls-15" d="M201.75,79.28c-1.75,7.96,9.56,10.74,14.17,2.09"/>
  <g>
    <path class="cls-25" d="M94.69,62.15c2.91,6.53-.04,14.2-6.57,17.11-6.53,2.91-14.2-.04-17.11-6.57-2.91-6.53.04-14.2,6.57-17.11,6.53-2.91,14.2.04,17.11,6.57Z"/>
    <circle class="cls-27" cx="82.86" cy="67.42" r="8.6"/>
    <rect class="cls-26" x="87.47" y="75.6" width="13.3" height="5.58" rx="2.79" ry="2.79" transform="translate(81.46 -43.44) rotate(44.28)"/>
    <path class="cls-9" d="M76.97,64.2c-1.46,3.01-.57,5.51.6,7.09"/>
    <circle class="cls-24" cx="79.04" cy="62.01" r="1.16"/>
  </g>
</svg>