<svg width="257" height="144" viewBox="0 0 257 144" fill="none" xmlns="http://www.w3.org/2000/svg">
<g clip-path="url(#clip0_1398_843)">
<path d="M164.79 62.23H132.88V104.22H164.79V62.23Z" fill="white"/>
<path d="M35.2302 82.68C29.5802 82.68 24.7102 79.51 22.5002 74.4C20.7702 70.42 21.2102 66.36 21.5302 63.4C21.5802 62.91 21.6402 62.43 21.6702 61.98L23.4502 37.02C23.6802 33.71 25.2802 28.89 31.5502 24.82C31.6102 24.78 31.6702 24.74 31.7402 24.7C31.9002 24.6 32.0602 24.5 32.2202 24.41C36.6802 21.96 41.0802 20.3 45.3102 19.47C47.7102 19 50.1602 18.73 52.6102 18.66C52.9902 18.66 53.3402 18.65 53.6902 18.65C54.4602 18.65 55.2202 18.67 55.9902 18.71C56.0202 18.71 56.0502 18.71 56.0702 18.71C59.6802 16.84 63.6202 15.48 67.6002 14.73C70.4102 14.2 73.2902 13.92 75.9102 13.92C78.2502 13.92 80.4502 14.14 82.4502 14.57C88.8202 15.93 91.9502 19.6 93.4602 22.43C93.4602 22.43 104.74 43.61 106.58 47.06L106.84 47.54C107.08 47.99 107.33 48.44 107.56 48.9C109.54 52.68 109.88 57.05 108.48 60.91C107.15 64.57 104.42 67.39 100.77 68.87C99.0002 69.59 97.0602 69.95 95.0102 69.95C93.3302 69.95 91.8302 69.71 90.6302 69.52C90.1702 69.45 89.7002 69.37 89.2402 69.32C88.4502 69.24 87.6802 69.2 86.9502 69.2C84.7102 69.2 82.6502 69.56 80.6402 70.31C79.3402 70.79 78.0602 71.37 76.8402 72.02C76.0302 73.25 75.0702 74.06 74.4702 74.48C72.3702 76 70.0702 76.28 68.9702 76.42H68.8602L67.0702 76.81C66.4202 76.99 65.2902 77.28 63.9102 77.28C62.0702 77.28 60.3402 76.75 58.8702 75.81C58.8302 75.81 58.7902 75.81 58.7502 75.81C58.3902 75.81 58.1002 75.81 57.8802 75.79C57.3902 75.77 56.9102 75.76 56.4302 75.76C53.4302 75.76 50.9702 76.2 48.9102 77.1C47.7002 77.63 46.4602 78.29 45.1202 79.11C44.9402 79.22 44.7502 79.35 44.5502 79.48C43.7502 80.02 42.6502 80.76 41.2502 81.37C39.3202 82.21 37.2802 82.64 35.2102 82.64L35.2302 82.68Z" fill="white" stroke="white" stroke-miterlimit="10"/>
<path d="M35.2302 82.68C29.5802 82.68 24.7102 79.51 22.5002 74.4C20.7702 70.42 21.2102 66.36 21.5302 63.4C21.5802 62.91 21.6402 62.43 21.6702 61.98L23.4502 37.02C23.6802 33.71 25.2802 28.89 31.5502 24.82C31.6102 24.78 31.6702 24.74 31.7402 24.7C31.9002 24.6 32.0602 24.5 32.2202 24.41C36.6802 21.96 41.0802 20.3 45.3102 19.47C47.7102 19 50.1602 18.73 52.6102 18.66C52.9902 18.66 53.3402 18.65 53.6902 18.65C54.4602 18.65 55.2202 18.67 55.9902 18.71C56.0202 18.71 56.0502 18.71 56.0702 18.71C59.6802 16.84 63.6202 15.48 67.6002 14.73C70.4102 14.2 73.2902 13.92 75.9102 13.92C78.2502 13.92 80.4502 14.14 82.4502 14.57C88.8202 15.93 91.9502 19.6 93.4602 22.43C93.4602 22.43 104.74 43.61 106.58 47.06L106.84 47.54C107.08 47.99 107.33 48.44 107.56 48.9C109.54 52.68 109.88 57.05 108.48 60.91C107.15 64.57 104.42 67.39 100.77 68.87C99.0002 69.59 97.0602 69.95 95.0102 69.95C93.3302 69.95 91.8302 69.71 90.6302 69.52C90.1702 69.45 89.7002 69.37 89.2402 69.32C88.4502 69.24 87.6802 69.2 86.9502 69.2C84.7102 69.2 82.6502 69.56 80.6402 70.31C79.3402 70.79 78.0602 71.37 76.8402 72.02C76.0302 73.25 75.0702 74.06 74.4702 74.48C72.3702 76 70.0702 76.28 68.9702 76.42H68.8602L67.0702 76.81C66.4202 76.99 65.2902 77.28 63.9102 77.28C62.0702 77.28 60.3402 76.75 58.8702 75.81C58.8302 75.81 58.7902 75.81 58.7502 75.81C58.3902 75.81 58.1002 75.81 57.8802 75.79C57.3902 75.77 56.9102 75.76 56.4302 75.76C53.4302 75.76 50.9702 76.2 48.9102 77.1C47.7002 77.63 46.4602 78.29 45.1202 79.11C44.9402 79.22 44.7502 79.35 44.5502 79.48C43.7502 80.02 42.6502 80.76 41.2502 81.37C39.3202 82.21 37.2802 82.64 35.2102 82.64L35.2302 82.68ZM42.9502 54.04C45.5702 53.17 48.2002 52.62 50.8802 52.4C51.3702 52.36 51.8602 52.33 52.3502 52.3L49.7402 38.75C47.8202 38.97 45.9202 39.5 44.0502 40.31L43.4802 40.55L42.9502 54.03V54.04ZM73.1302 47.88C75.5002 46.94 77.9302 46.27 80.3602 45.89C81.0302 45.78 81.7102 45.7 82.4102 45.63L76.4702 33.58C76.3902 33.58 76.3102 33.58 76.2402 33.58C73.9602 33.58 71.9102 33.87 70.0202 34.46L73.1302 47.89V47.88Z" fill="white" stroke="white" stroke-miterlimit="10"/>
<path d="M56.6302 134.03C52.0002 134.03 48.2002 132.17 45.7502 128.91C44.7202 129.35 43.7402 129.6 42.9202 129.74C42.1602 129.87 41.3702 129.93 40.5802 129.93C33.5902 129.93 27.7202 125.26 26.6302 118.83C25.9002 114.49 27.5902 111.32 28.9602 108.78C30.1002 106.64 31.1502 104.37 32.1202 101.93C26.7602 100.91 22.8402 96.82 21.8502 90.94C20.5302 83.16 25.1502 76.79 33.0802 75.44L43.0402 73.75C42.3302 66.47 46.8402 60.81 54.5702 59.5C55.5102 59.34 56.4302 59.26 57.3202 59.26C60.1402 59.26 62.6702 60.05 64.7402 61.46C66.8902 57.43 70.8202 54.39 75.6702 53.57C76.5002 53.43 77.3402 53.36 78.1802 53.36C85.5602 53.36 92.0502 58.83 93.2802 66.08C93.7202 68.69 93.4702 71.33 92.5802 73.77C93.4002 75.2 93.9902 76.84 94.2902 78.66C95.2002 84.01 93.3202 88.69 89.5102 91.55L89.6002 91.65C95.1502 97.66 98.2502 102.45 98.8302 105.87C100.09 113.3 94.7802 120.41 87.0002 121.73C86.2902 121.85 85.5702 121.91 84.8602 121.91C82.8102 121.91 80.1002 121.4 77.4202 119.4C76.5802 125.29 72.7702 131.59 61.0202 133.58C59.3102 133.87 57.9102 134 56.6102 134L56.6302 134.03Z" fill="white" stroke="white" stroke-width="8"/>
<path d="M102.7 128.21C95.8403 128.21 90.0403 122.37 90.0403 115.46C90.0403 113.42 90.5403 111.72 91.2703 110.31C84.9603 109.62 80.0303 104.4 80.0303 98.07C80.0303 93.79 82.3003 90.91 83.2703 89.68C86.5203 85.61 89.1903 81.01 91.0103 76.33C93.2303 70.47 97.0803 67.49 102.45 67.49C108.77 67.49 113.9 71.43 115.12 76.82H127.31C134.45 76.82 139.62 81.98 139.62 89.09C139.62 96.2 134.44 101.35 127.31 101.35H126.19C125.06 107.71 122.72 113.13 119.13 117.75C116.61 120.94 110.05 128.21 102.7 128.21Z" fill="white" stroke="white" stroke-width="8"/>
<path d="M133.04 137.08C126.76 137.08 121.45 131.56 121.45 125.03C121.45 122.18 122.36 119.76 124.18 117.79C121.74 116.19 120.46 113.8 119.69 112.37C119.67 112.33 119.65 112.3 119.63 112.26C119.01 111.05 118.42 110.02 117.85 109.08C116.73 107.31 115.54 105.03 115.54 102.12C115.54 95.83 120.92 90.71 127.54 90.71C128.21 90.71 128.85 90.76 129.44 90.86C131.45 89.4 133.96 88.53 136.67 88.53C139.71 88.53 142.35 89.65 144.55 91.87C146.66 90.25 149.2 89.57 151.53 89.57C158.42 89.57 163.62 94.53 163.62 101.12C163.62 103.44 163.06 105.76 162.53 107.75C160.94 114.08 158.36 119.57 154.88 124.06C154.85 124.09 154.83 124.13 154.8 124.16C150.52 129.51 144.65 133.72 138.28 136.02C137.13 136.43 135.3 137.07 133.03 137.07L133.04 137.08Z" fill="white" stroke="white" stroke-width="8"/>
<path d="M168.39 139.85C168.05 139.85 167.7 139.85 167.34 139.82C159.33 139.37 154.24 133.71 154.69 125.73L157.19 81.04C157.62 73.37 162.77 68.42 170.31 68.42C170.64 68.42 170.99 68.42 171.34 68.45C175.29 68.67 178.47 70.04 180.78 72.53C182.43 74.31 184.34 77.49 184.06 82.54L183.71 88.75C189.25 91.7 195.14 95.11 200.56 99.12C202.33 100.45 207.59 104.4 207.2 111.24C206.79 118.53 200.8 124.46 193.84 124.46C193.61 124.46 193.37 124.46 193.13 124.44C189.12 124.22 186.58 122.36 184.12 120.57C183.77 120.31 183.38 120.03 182.95 119.73C182.63 119.5 182.31 119.28 182 119.06L181.54 127.24C181.11 134.91 175.94 139.86 168.38 139.86L168.39 139.85Z" fill="white" stroke="white" stroke-width="8"/>
<path d="M56.6302 134.03C52.0002 134.03 48.2002 132.17 45.7502 128.91C44.7202 129.35 43.7402 129.6 42.9202 129.74C42.1602 129.87 41.3702 129.93 40.5802 129.93C33.5902 129.93 27.7202 125.26 26.6302 118.83C25.9002 114.49 27.5902 111.32 28.9602 108.78C30.1002 106.64 31.1502 104.37 32.1202 101.93C26.7602 100.91 22.8402 96.82 21.8502 90.94C20.5302 83.16 25.1502 76.79 33.0802 75.44L43.0402 73.75C42.3302 66.47 46.8402 60.81 54.5702 59.5C55.5102 59.34 56.4302 59.26 57.3202 59.26C60.1402 59.26 62.6702 60.05 64.7402 61.46C66.8902 57.43 70.8202 54.39 75.6702 53.57C76.5002 53.43 77.3402 53.36 78.1802 53.36C85.5602 53.36 92.0502 58.83 93.2802 66.08C93.7202 68.69 93.4702 71.33 92.5802 73.77C93.4002 75.2 93.9902 76.84 94.2902 78.66C95.2002 84.01 93.3202 88.69 89.5102 91.55L89.6002 91.65C95.1502 97.66 98.2502 102.45 98.8302 105.87C100.09 113.3 94.7802 120.41 87.0002 121.73C86.2902 121.85 85.5702 121.91 84.8602 121.91C82.8102 121.91 80.1002 121.4 77.4202 119.4C76.5802 125.29 72.7702 131.59 61.0202 133.58C59.3102 133.87 57.9102 134 56.6102 134L56.6302 134.03Z" fill="white" stroke="white" stroke-miterlimit="10"/>
<path d="M102.7 128.21C95.8403 128.21 90.0403 122.37 90.0403 115.46C90.0403 113.42 90.5403 111.72 91.2703 110.31C84.9603 109.62 80.0303 104.4 80.0303 98.07C80.0303 93.79 82.3003 90.91 83.2703 89.68C86.5203 85.61 89.1903 81.01 91.0103 76.33C93.2303 70.47 97.0803 67.49 102.45 67.49C108.77 67.49 113.9 71.43 115.12 76.82H127.31C134.45 76.82 139.62 81.98 139.62 89.09C139.62 96.2 134.44 101.35 127.31 101.35H126.19C125.06 107.71 122.72 113.13 119.13 117.75C116.61 120.94 110.05 128.21 102.7 128.21Z" fill="white" stroke="white" stroke-miterlimit="10"/>
<path d="M133.04 137.08C126.76 137.08 121.45 131.56 121.45 125.03C121.45 122.18 122.36 119.76 124.18 117.79C121.74 116.19 120.46 113.8 119.69 112.37C119.67 112.33 119.65 112.3 119.63 112.26C119.01 111.05 118.42 110.02 117.85 109.08C116.73 107.31 115.54 105.03 115.54 102.12C115.54 95.83 120.92 90.71 127.54 90.71C128.21 90.71 128.85 90.76 129.44 90.86C131.45 89.4 133.96 88.53 136.67 88.53C139.71 88.53 142.35 89.65 144.55 91.87C146.66 90.25 149.2 89.57 151.53 89.57C158.42 89.57 163.62 94.53 163.62 101.12C163.62 103.44 163.06 105.76 162.53 107.75C160.94 114.08 158.36 119.57 154.88 124.06C154.85 124.09 154.83 124.13 154.8 124.16C150.52 129.51 144.65 133.72 138.28 136.02C137.13 136.43 135.3 137.07 133.03 137.07L133.04 137.08Z" fill="white" stroke="white" stroke-miterlimit="10"/>
<path d="M168.39 139.85C168.05 139.85 167.7 139.85 167.34 139.82C159.33 139.37 154.24 133.71 154.69 125.73L157.19 81.04C157.62 73.37 162.77 68.42 170.31 68.42C170.64 68.42 170.99 68.42 171.34 68.45C175.29 68.67 178.47 70.04 180.78 72.53C182.43 74.31 184.34 77.49 184.06 82.54L183.71 88.75C189.25 91.7 195.14 95.11 200.56 99.12C202.33 100.45 207.59 104.4 207.2 111.24C206.79 118.53 200.8 124.46 193.84 124.46C193.61 124.46 193.37 124.46 193.13 124.44C189.12 124.22 186.58 122.36 184.12 120.57C183.77 120.31 183.38 120.03 182.95 119.73C182.63 119.5 182.31 119.28 182 119.06L181.54 127.24C181.11 134.91 175.94 139.86 168.38 139.86L168.39 139.85Z" fill="white" stroke="white" stroke-miterlimit="10"/>
<path d="M118.92 39.87C117.9 39.87 116.86 39.68 115.85 39.29C115.32 39.08 114.15 38.68 112.7 38.18C105.23 35.58 101.58 34.22 99.6304 33.06C95.5904 30.66 94.2704 25.44 96.6704 21.4C99.0504 17.4 104.2 16.06 108.22 18.37C109.67 19.1 115.71 21.2 118.31 22.11C120.21 22.77 121.32 23.16 122.01 23.43C126.39 25.13 128.56 30.05 126.86 34.43C125.55 37.8 122.34 39.86 118.93 39.86L118.92 39.87ZM108.27 18.4C108.27 18.4 108.31 18.42 108.33 18.44C108.31 18.43 108.29 18.42 108.27 18.4Z" fill="white" stroke="white" stroke-width="14" stroke-linecap="round" stroke-linejoin="round"/>
<path d="M93.5502 70.54C90.3702 70.54 87.3302 68.75 85.8702 65.7C83.8502 61.46 85.6502 56.39 89.8902 54.36C91.3402 53.67 92.8102 53 94.2802 52.33C96.6602 51.24 98.9502 50.2 101.13 49.08C99.8502 49.05 98.9002 48.98 98.1202 48.86C93.4802 48.11 90.3302 43.75 91.0802 39.11C91.8202 34.52 96.1002 31.39 100.68 32.05C101.67 32.14 105.16 32.09 107.72 32.06C122.19 31.88 127.06 31.83 130.04 37.23C131.6 40.05 131.47 43.49 129.71 46.21C121.74 58.51 110.9 63.45 101.34 67.81C99.9502 68.44 98.5702 69.07 97.2102 69.72C96.0302 70.28 94.7802 70.55 93.5602 70.55L93.5502 70.54ZM100.74 32.05C100.74 32.05 100.8 32.05 100.82 32.06C100.79 32.06 100.77 32.06 100.74 32.05Z" fill="white" stroke="white" stroke-width="14" stroke-linecap="round" stroke-linejoin="round"/>
<path d="M127.75 75.63C127.56 75.63 127.36 75.63 127.17 75.61C117.07 74.93 110.11 73.48 106.62 68.38C103.96 64.5 104.63 60.48 105.29 58.11C101.92 55.61 100.84 50.95 102.92 47.18C105.19 43.07 110.36 41.57 114.48 43.85C120.6 47.23 123.36 52.01 122.71 58.1C124.06 58.29 125.89 58.49 128.32 58.66C133.01 58.98 136.55 63.03 136.23 67.72C135.93 72.21 132.19 75.65 127.75 75.65V75.63Z" fill="white" stroke="white" stroke-width="14" stroke-linecap="round" stroke-linejoin="round"/>
<path d="M138.51 74.4C137.8 74.4 137.06 74.32 136.3 74.14C132.77 73.33 130.05 70.63 129.03 66.9C127.39 60.97 130.2 54.09 134.91 43.34C136.55 39.6 138.41 35.37 138.86 33.34C139.88 28.76 144.42 25.86 149.01 26.88C153.59 27.9 156.48 32.44 155.47 37.03C154.7 40.48 152.85 44.79 150.84 49.38C153.24 50.21 155.16 52.05 156.11 54.49C157.72 58.65 155.84 63.31 151.89 65.22C151.62 65.52 151.35 65.84 151.12 66.1C147.85 69.84 143.88 74.39 138.53 74.39L138.51 74.4Z" fill="white" stroke="white" stroke-width="14" stroke-linecap="round" stroke-linejoin="round"/>
<path d="M157.71 81.39C152.29 81.39 146.97 78.74 143.89 75.4C140.22 71.42 139.31 66.17 141.53 61.69C144.21 56.29 149.06 53.12 154.83 53C155.87 52.98 156.92 53.06 157.97 53.24C158.96 49.71 160.4 44.55 160.77 42.7C160.8 39.29 162.89 36.09 166.28 34.81C170.68 33.15 175.58 35.37 177.24 39.77C178.5 43.1 177.84 45.45 174.17 58.48C173.93 59.34 173.66 60.28 173.4 61.23C176.11 63.55 178.08 65.81 178.82 67.16C181.08 71.28 179.56 76.45 175.44 78.7C172.59 80.26 169.24 80.02 166.7 78.36C165.71 79.15 164.59 79.81 163.35 80.3C161.52 81.04 159.61 81.36 157.71 81.36V81.39Z" fill="white" stroke="white" stroke-width="14" stroke-linecap="round" stroke-linejoin="round"/>
<path d="M178.54 51.72C178.23 51.72 177.92 51.7 177.61 51.67C175.32 51.42 162.76 48.72 155.92 46.17C151.52 44.53 149.28 39.63 150.92 35.23C152.56 30.83 157.46 28.59 161.86 30.23C167.12 32.19 177.73 34.51 179.52 34.77C184.15 35.31 187.48 39.49 186.98 44.13C186.51 48.49 182.82 51.72 178.54 51.72Z" fill="white" stroke="white" stroke-width="14" stroke-linecap="round" stroke-linejoin="round"/>
<path d="M172.67 64.37L154.87 58.83C150.39 57.43 147.88 52.67 149.28 48.18C150.68 43.7 155.44 41.19 159.93 42.59L177.72 48.13L172.66 64.37H172.67Z" fill="white" stroke="white" stroke-width="14" stroke-linecap="round" stroke-linejoin="round"/>
<path d="M180.96 86.5C178.3 86.5 175.69 85.26 174.03 82.93C171.3 79.11 172.19 73.8 176.02 71.07C179.92 68.29 186.9 60.76 192 55.26C194.68 52.37 197 49.87 198.89 47.99C202.22 44.68 207.6 44.69 210.92 48.02C214.23 51.35 214.22 56.73 210.89 60.05C209.24 61.69 206.92 64.19 204.48 66.83C198.26 73.53 191.22 81.13 185.9 84.92C184.4 85.99 182.68 86.5 180.97 86.5H180.96Z" fill="white" stroke="white" stroke-width="14" stroke-linecap="round" stroke-linejoin="round"/>
<path d="M199.15 88.85C196 88.85 192.97 87.09 191.5 84.07C190.46 81.94 190.39 79.58 191.13 77.5C188.67 77.21 186.35 75.85 184.93 73.59C182.43 69.62 183.62 64.37 187.6 61.86C193.44 58.18 199.77 57.79 204.98 60.79C209.73 63.52 212.57 68.64 212.39 74.16C212.19 80.01 208.64 85.18 202.88 87.99C201.68 88.58 200.41 88.85 199.16 88.85H199.15Z" fill="white" stroke="white" stroke-width="14" stroke-linecap="round" stroke-linejoin="round"/>
<path d="M205.25 96.24C203.35 96.24 201.5 95.91 199.81 95.29C192.91 92.75 189.23 85.85 190.84 78.51C191.85 73.93 196.37 71.05 200.95 72.05C203.68 72.64 205.82 74.5 206.89 76.87C209.43 73.93 213.75 73.03 217.32 74.93C221.47 77.14 223.04 82.29 220.83 86.43C217.19 93.27 210.98 96.24 205.25 96.24Z" fill="white" stroke="white" stroke-width="14" stroke-linecap="round" stroke-linejoin="round"/>
<path d="M118.92 39.87C117.9 39.87 116.86 39.68 115.85 39.29C115.32 39.08 114.15 38.68 112.7 38.18C105.23 35.58 101.58 34.22 99.6304 33.06C95.5904 30.66 94.2704 25.44 96.6704 21.4C99.0504 17.4 104.2 16.06 108.22 18.37C109.67 19.1 115.71 21.2 118.31 22.11C120.21 22.77 121.32 23.16 122.01 23.43C126.39 25.13 128.56 30.05 126.86 34.43C125.55 37.8 122.34 39.86 118.93 39.86L118.92 39.87ZM108.27 18.4C108.27 18.4 108.31 18.42 108.33 18.44C108.31 18.43 108.29 18.42 108.27 18.4Z" fill="white" stroke="white" stroke-width="7.93" stroke-linecap="round" stroke-linejoin="round"/>
<path d="M93.5502 70.54C90.3702 70.54 87.3302 68.75 85.8702 65.7C83.8502 61.46 85.6502 56.39 89.8902 54.36C91.3402 53.67 92.8102 53 94.2802 52.33C96.6602 51.24 98.9502 50.2 101.13 49.08C99.8502 49.05 98.9002 48.98 98.1202 48.86C93.4802 48.11 90.3302 43.75 91.0802 39.11C91.8202 34.52 96.1002 31.39 100.68 32.05C101.67 32.14 105.16 32.09 107.72 32.06C122.19 31.88 127.06 31.83 130.04 37.23C131.6 40.05 131.47 43.49 129.71 46.21C121.74 58.51 110.9 63.45 101.34 67.81C99.9502 68.44 98.5702 69.07 97.2102 69.72C96.0302 70.28 94.7802 70.55 93.5602 70.55L93.5502 70.54ZM100.74 32.05C100.74 32.05 100.8 32.05 100.82 32.06C100.79 32.06 100.77 32.06 100.74 32.05Z" fill="white" stroke="white" stroke-width="7.93" stroke-linecap="round" stroke-linejoin="round"/>
<path d="M127.75 75.63C127.56 75.63 127.36 75.63 127.17 75.61C117.07 74.93 110.11 73.48 106.62 68.38C103.96 64.5 104.63 60.48 105.29 58.11C101.92 55.61 100.84 50.95 102.92 47.18C105.19 43.07 110.36 41.57 114.48 43.85C120.6 47.23 123.36 52.01 122.71 58.1C124.06 58.29 125.89 58.49 128.32 58.66C133.01 58.98 136.55 63.03 136.23 67.72C135.93 72.21 132.19 75.65 127.75 75.65V75.63Z" fill="white" stroke="white" stroke-width="7.93" stroke-linecap="round" stroke-linejoin="round"/>
<path d="M138.51 74.4C137.8 74.4 137.06 74.32 136.3 74.14C132.77 73.33 130.05 70.63 129.03 66.9C127.39 60.97 130.2 54.09 134.91 43.34C136.55 39.6 138.41 35.37 138.86 33.34C139.88 28.76 144.42 25.86 149.01 26.88C153.59 27.9 156.48 32.44 155.47 37.03C154.7 40.48 152.85 44.79 150.84 49.38C153.24 50.21 155.16 52.05 156.11 54.49C157.72 58.65 155.84 63.31 151.89 65.22C151.62 65.52 151.35 65.84 151.12 66.1C147.85 69.84 143.88 74.39 138.53 74.39L138.51 74.4Z" fill="white" stroke="white" stroke-width="8.09" stroke-linecap="round" stroke-linejoin="round"/>
<path d="M157.71 81.39C152.29 81.39 146.97 78.74 143.89 75.4C140.22 71.42 139.31 66.17 141.53 61.69C144.21 56.29 149.06 53.12 154.83 53C155.87 52.98 156.92 53.06 157.97 53.24C158.96 49.71 160.4 44.55 160.77 42.7C160.8 39.29 162.89 36.09 166.28 34.81C170.68 33.15 175.58 35.37 177.24 39.77C178.5 43.1 177.84 45.45 174.17 58.48C173.93 59.34 173.66 60.28 173.4 61.23C176.11 63.55 178.08 65.81 178.82 67.16C181.08 71.28 179.56 76.45 175.44 78.7C172.59 80.26 169.24 80.02 166.7 78.36C165.71 79.15 164.59 79.81 163.35 80.3C161.52 81.04 159.61 81.36 157.71 81.36V81.39Z" fill="white" stroke="white" stroke-width="8.09" stroke-linecap="round" stroke-linejoin="round"/>
<path d="M178.54 51.72C178.23 51.72 177.92 51.7 177.61 51.67C175.32 51.42 162.76 48.72 155.92 46.17C151.52 44.53 149.28 39.63 150.92 35.23C152.56 30.83 157.46 28.59 161.86 30.23C167.12 32.19 177.73 34.51 179.52 34.77C184.15 35.31 187.48 39.49 186.98 44.13C186.51 48.49 182.82 51.72 178.54 51.72Z" fill="white" stroke="white" stroke-width="8.09" stroke-linecap="round" stroke-linejoin="round"/>
<path d="M172.67 64.37L154.87 58.83C150.39 57.43 147.88 52.67 149.28 48.18C150.68 43.7 155.44 41.19 159.93 42.59L177.72 48.13L172.66 64.37H172.67Z" fill="white" stroke="white" stroke-width="8.09" stroke-linecap="round" stroke-linejoin="round"/>
<path d="M180.96 86.5C178.3 86.5 175.69 85.26 174.03 82.93C171.3 79.11 172.19 73.8 176.02 71.07C179.92 68.29 186.9 60.76 192 55.26C194.68 52.37 197 49.87 198.89 47.99C202.22 44.68 207.6 44.69 210.92 48.02C214.23 51.35 214.22 56.73 210.89 60.05C209.24 61.69 206.92 64.19 204.48 66.83C198.26 73.53 191.22 81.13 185.9 84.92C184.4 85.99 182.68 86.5 180.97 86.5H180.96Z" fill="white" stroke="white" stroke-width="7.83" stroke-linecap="round" stroke-linejoin="round"/>
<path d="M199.15 88.85C196 88.85 192.97 87.09 191.5 84.07C190.46 81.94 190.39 79.58 191.13 77.5C188.67 77.21 186.35 75.85 184.93 73.59C182.43 69.62 183.62 64.37 187.6 61.86C193.44 58.18 199.77 57.79 204.98 60.79C209.73 63.52 212.57 68.64 212.39 74.16C212.19 80.01 208.64 85.18 202.88 87.99C201.68 88.58 200.41 88.85 199.16 88.85H199.15Z" fill="white" stroke="white" stroke-width="7.83" stroke-linecap="round" stroke-linejoin="round"/>
<path d="M205.25 96.24C203.35 96.24 201.5 95.91 199.81 95.29C192.91 92.75 189.23 85.85 190.84 78.51C191.85 73.93 196.37 71.05 200.95 72.05C203.68 72.64 205.82 74.5 206.89 76.87C209.43 73.93 213.75 73.03 217.32 74.93C221.47 77.14 223.04 82.29 220.83 86.43C217.19 93.27 210.98 96.24 205.25 96.24Z" fill="white" stroke="white" stroke-width="7.83" stroke-linecap="round" stroke-linejoin="round"/>
<path d="M78.1703 88.71C69.6903 88.71 61.9903 83.71 58.5403 75.98C53.7303 65.17 58.6103 52.46 69.4203 47.65C72.1803 46.42 75.1103 45.8 78.1303 45.8C86.6103 45.8 94.3103 50.8 97.7503 58.53C102.56 69.34 97.6803 82.05 86.8703 86.86C84.1103 88.09 81.1803 88.71 78.1603 88.71H78.1703Z" fill="white" stroke="white" stroke-miterlimit="10"/>
<path d="M78.1504 84.36C71.4004 84.36 65.2604 80.38 62.5204 74.21C60.6604 70.04 60.5404 65.39 62.1804 61.12C63.8204 56.85 67.0204 53.48 71.1904 51.62C73.4004 50.64 75.7404 50.14 78.1404 50.14C84.8904 50.14 91.0304 54.13 93.7704 60.29C97.6004 68.9 93.7204 79.04 85.1004 82.87C82.8904 83.85 80.5504 84.35 78.1504 84.35V84.36Z" fill="white" stroke="white" stroke-miterlimit="10"/>
<path d="M92.1701 92.22C89.2101 92.22 86.4101 91.08 84.2801 89.01L78.7601 83.62C76.6001 81.52 75.3901 78.69 75.3501 75.68C75.3101 72.66 76.4501 69.81 78.5601 67.65C80.6701 65.48 83.6201 64.24 86.6501 64.24C89.6801 64.24 92.4101 65.38 94.5401 67.45L100.06 72.83C104.52 77.18 104.61 84.34 100.26 88.8C98.1401 90.97 95.2001 92.21 92.1701 92.21V92.22Z" fill="white" stroke="white" stroke-miterlimit="10"/>
<path d="M72.8703 79.62C70.2703 79.62 67.7003 78.43 66.0303 76.17C62.5903 71.52 62.0603 65.6 64.6103 60.32C66.6503 56.09 71.7403 54.32 75.9703 56.36C79.9303 58.28 81.7403 62.86 80.2703 66.91C82.3703 70.6 81.4303 75.35 77.9303 77.94C76.4103 79.07 74.6403 79.61 72.8803 79.61L72.8703 79.62Z" fill="white" stroke="white" stroke-width="2" stroke-linecap="round" stroke-linejoin="round"/>
<path d="M74.33 71.5C69.27 71.5 65.03 67.54 64.69 62.49C64.52 59.92 65.36 57.43 67.05 55.49C68.75 53.55 71.1 52.38 73.68 52.21C73.87 52.2 74.14 52.19 74.33 52.19C79.39 52.19 83.63 56.15 83.97 61.2C84.14 63.77 83.3 66.26 81.61 68.2C79.91 70.14 77.56 71.31 74.98 71.48C74.79 71.49 74.52 71.5 74.33 71.5Z" fill="white" stroke="white" stroke-miterlimit="10"/>
<path d="M78.1703 88.71C69.6903 88.71 61.9903 83.71 58.5403 75.98C53.7303 65.17 58.6103 52.46 69.4203 47.65C72.1803 46.42 75.1103 45.8 78.1303 45.8C86.6103 45.8 94.3103 50.8 97.7503 58.53C102.56 69.34 97.6803 82.05 86.8703 86.86C84.1103 88.09 81.1803 88.71 78.1603 88.71H78.1703Z" fill="white" stroke="white" stroke-miterlimit="10"/>
<path d="M78.1504 84.36C71.4004 84.36 65.2604 80.38 62.5204 74.21C60.6604 70.04 60.5404 65.39 62.1804 61.12C63.8204 56.85 67.0204 53.48 71.1904 51.62C73.4004 50.64 75.7404 50.14 78.1404 50.14C84.8904 50.14 91.0304 54.13 93.7704 60.29C97.6004 68.9 93.7204 79.04 85.1004 82.87C82.8904 83.85 80.5504 84.35 78.1504 84.35V84.36Z" fill="white" stroke="white" stroke-miterlimit="10"/>
<path d="M92.1701 92.22C89.2101 92.22 86.4101 91.08 84.2801 89.01L78.7601 83.62C76.6001 81.52 75.3901 78.69 75.3501 75.68C75.3101 72.66 76.4501 69.81 78.5601 67.65C80.6701 65.48 83.6201 64.24 86.6501 64.24C89.6801 64.24 92.4101 65.38 94.5401 67.45L100.06 72.83C104.52 77.18 104.61 84.34 100.26 88.8C98.1401 90.97 95.2001 92.21 92.1701 92.21V92.22Z" fill="white" stroke="white" stroke-miterlimit="10"/>
<path d="M72.8703 79.62C70.2703 79.62 67.7003 78.43 66.0303 76.17C62.5903 71.52 62.0603 65.6 64.6103 60.32C66.6503 56.09 71.7403 54.32 75.9703 56.36C79.9303 58.28 81.7403 62.86 80.2703 66.91C82.3703 70.6 81.4303 75.35 77.9303 77.94C76.4103 79.07 74.6403 79.61 72.8803 79.61L72.8703 79.62Z" fill="white" stroke="white" stroke-width="2" stroke-linecap="round" stroke-linejoin="round"/>
<path d="M74.33 71.5C69.27 71.5 65.03 67.54 64.69 62.49C64.52 59.92 65.36 57.43 67.05 55.49C68.75 53.55 71.1 52.38 73.68 52.21C73.87 52.2 74.14 52.19 74.33 52.19C79.39 52.19 83.63 56.15 83.97 61.2C84.14 63.77 83.3 66.26 81.61 68.2C79.91 70.14 77.56 71.31 74.98 71.48C74.79 71.49 74.52 71.5 74.33 71.5Z" fill="white" stroke="white" stroke-miterlimit="10"/>
<path d="M102.62 52.3C102.32 51.71 102 51.13 101.69 50.55C99.8602 47.1 98.0202 43.66 96.1802 40.21C94.1702 36.44 92.1602 32.67 90.1602 28.9C89.6302 27.91 89.1002 26.92 88.5802 25.93C87.4902 23.89 85.5002 22.86 83.2902 22.38C79.6902 21.61 75.3802 21.91 71.7902 22.58C67.9602 23.3 64.1802 24.73 60.8402 26.73C60.1902 27.12 58.9002 26.73 58.1402 26.68C57.2402 26.63 56.3502 26.62 55.4502 26.64C53.4702 26.69 51.5002 26.91 49.5602 27.29C45.8502 28.02 42.2302 29.53 38.9202 31.34C38.2002 31.8 38.7202 31.47 38.8702 31.37C36.8402 32.67 34.7202 34.54 34.5402 37.11C34.4902 37.75 34.4502 38.39 34.4002 39.03C34.1702 42.27 33.9402 45.51 33.7102 48.76C33.3902 53.19 33.0802 57.63 32.7602 62.06C32.5802 64.64 31.8502 68.06 32.9102 70.5C34.2202 73.53 37.6202 74.33 40.4902 73.08C41.4902 72.64 42.3602 71.95 43.2802 71.38C44.8302 70.42 46.4402 69.55 48.1102 68.82C52.1302 67.05 56.5002 66.61 60.8602 66.8C61.8302 66.84 65.4202 66.7 65.7402 67.72C66.0402 68.66 67.0902 68.16 67.7902 68.02L69.8702 67.58C70.5102 67.45 71.6102 67.44 72.1602 67.05C72.7102 66.66 72.1002 66.1 72.6202 65.73C73.3202 65.23 74.0702 64.78 74.8202 64.36C76.5802 63.37 78.4202 62.53 80.3102 61.83C84.3602 60.33 88.4002 59.94 92.6802 60.35C95.1802 60.59 97.7502 61.47 100.2 60.48C103.54 59.13 104.21 55.28 102.63 52.3H102.62Z" fill="white"/>
<path d="M102.62 52.3C102.32 51.71 102 51.13 101.69 50.55C99.8602 47.1 98.0202 43.66 96.1802 40.21C94.1702 36.44 92.1602 32.67 90.1602 28.9C89.6302 27.91 89.1002 26.92 88.5802 25.93C87.4902 23.89 85.5002 22.86 83.2902 22.38C79.6902 21.61 75.3802 21.91 71.7902 22.58C67.9602 23.3 64.1802 24.73 60.8402 26.73C60.1902 27.12 58.9002 26.73 58.1402 26.68C57.2402 26.63 56.3502 26.62 55.4502 26.64C53.4702 26.69 51.5002 26.91 49.5602 27.29C45.8502 28.02 42.2302 29.53 38.9202 31.34C38.2002 31.8 38.7202 31.47 38.8702 31.37C36.8402 32.67 34.7202 34.54 34.5402 37.11C34.4902 37.75 34.4502 38.39 34.4002 39.03C34.1702 42.27 33.9402 45.51 33.7102 48.76C33.3902 53.19 33.0802 57.63 32.7602 62.06C32.5802 64.64 31.8502 68.06 32.9102 70.5C34.2202 73.53 37.6202 74.33 40.4902 73.08C41.4902 72.64 42.3602 71.95 43.2802 71.38C44.8302 70.42 46.4402 69.55 48.1102 68.82C52.1302 67.05 56.5002 66.61 60.8602 66.8C61.8302 66.84 65.4202 66.7 65.7402 67.72C66.0402 68.66 67.0902 68.16 67.7902 68.02L69.8702 67.58C70.5102 67.45 71.6102 67.44 72.1602 67.05C72.7102 66.66 72.1002 66.1 72.6202 65.73C73.3202 65.23 74.0702 64.78 74.8202 64.36C76.5802 63.37 78.4202 62.53 80.3102 61.83C84.3602 60.33 88.4002 59.94 92.6802 60.35C95.1802 60.59 97.7502 61.47 100.2 60.48C103.54 59.13 104.21 55.28 102.63 52.3H102.62ZM59.4902 30.41C60.0102 33.09 60.5202 35.77 61.0402 38.45C62.4602 45.81 63.8802 53.18 65.3002 60.54C65.4002 61.03 65.3302 61.37 64.7702 61.47C61.4202 60.33 57.6802 60.06 54.1802 60.36C50.0702 60.7 46.2602 62.08 42.6702 64.09C41.5602 64.71 40.3902 65.8 39.1302 66.07C37.6802 66.38 36.5702 65.27 36.6202 63.85C36.7702 60.19 36.9102 56.53 37.0502 52.87C37.2202 48.57 37.3902 44.26 37.5602 39.96C37.6002 38.89 37.6402 37.82 37.6902 36.74C37.7902 34.12 41.2202 32.9 43.2202 32.01C46.9802 30.36 50.9602 29.52 55.0602 29.61M95.1202 54.05C91.6002 53.39 87.8402 53.21 84.3002 53.77C80.2802 54.41 76.3802 56.09 73.0302 58.39C72.6502 58.65 70.3102 61.23 69.8902 59.84C69.1302 56.55 68.3702 53.26 67.6002 49.97C66.0302 43.17 64.4502 36.38 62.8802 29.58C62.7902 29.19 63.6902 28.79 63.8702 28.68C65.2902 27.77 66.8202 27.02 68.4002 26.41C72.2302 24.92 76.2102 24.43 80.3002 24.59C82.3102 24.67 84.5202 24.86 85.5102 26.86C86.0702 27.99 86.6202 29.11 87.1802 30.24C90.5402 37.06 93.9002 43.88 97.2602 50.69C98.1002 52.39 97.2402 54.25 95.1402 54.05H95.1202Z" fill="#FFBECD"/>
<path d="M223.46 55.0499C223.24 54.2599 223.63 53.4199 224.39 53.0899L246.43 43.4999C247.31 43.1199 248.33 43.5699 248.65 44.4699L250.09 48.6299C250.41 49.5599 249.86 50.5499 248.9 50.7699L225.43 56.1999C224.57 56.3999 223.71 55.8899 223.47 55.0399L223.46 55.0499Z" stroke="white" stroke-width="12" stroke-miterlimit="10"/>
<path d="M216.18 43.3299C215.59 42.7499 215.52 41.8299 216.01 41.1699L230.3 21.8499C230.87 21.0799 231.98 20.9599 232.71 21.5899L236.04 24.4799C236.78 25.1199 236.8 26.2599 236.08 26.9299L218.47 43.3699C217.83 43.9699 216.82 43.9599 216.19 43.3399L216.18 43.3299Z" stroke="white" stroke-width="12" stroke-miterlimit="10"/>
<path d="M202.96 37.47C202.16 37.27 201.64 36.5 201.73 35.69L204.44 11.81C204.55 10.85 205.45 10.19 206.39 10.38L210.71 11.22C211.67 11.41 212.26 12.38 211.97 13.32L204.93 36.36C204.67 37.2 203.8 37.69 202.94 37.48L202.96 37.47Z" stroke="white" stroke-width="12" stroke-miterlimit="10"/>
<path d="M223.46 55.0499C223.24 54.2599 223.63 53.4199 224.39 53.0899L246.43 43.4999C247.31 43.1199 248.33 43.5699 248.65 44.4699L250.09 48.6299C250.41 49.5599 249.86 50.5499 248.9 50.7699L225.43 56.1999C224.57 56.3999 223.71 55.8899 223.47 55.0399L223.46 55.0499Z" fill="#A0DAEA"/>
<path d="M216.18 43.3299C215.59 42.7499 215.52 41.8299 216.01 41.1699L230.3 21.8499C230.87 21.0799 231.98 20.9599 232.71 21.5899L236.04 24.4799C236.78 25.1199 236.8 26.2599 236.08 26.9299L218.47 43.3699C217.83 43.9699 216.82 43.9599 216.19 43.3399L216.18 43.3299Z" fill="#A0DAEA"/>
<path d="M202.96 37.47C202.16 37.27 201.64 36.5 201.73 35.69L204.44 11.81C204.55 10.85 205.45 10.19 206.39 10.38L210.71 11.22C211.67 11.41 212.26 12.38 211.97 13.32L204.93 36.36C204.67 37.2 203.8 37.69 202.94 37.48L202.96 37.47Z" fill="#A0DAEA"/>
<path d="M9.49995 21.4L15.2199 18.59C17.1099 17.67 18.3499 15.74 18.4799 13.56L18.8699 6.93001C18.8999 6.47001 19.2199 6.09001 19.6499 6.01001C20.0799 5.93001 20.5199 6.16001 20.7099 6.58001L23.4899 12.61C24.4099 14.6 26.2699 15.93 28.3599 16.11L34.7099 16.64C35.1499 16.68 35.5199 17.02 35.5999 17.47C35.6799 17.92 35.4699 18.37 35.0699 18.57L29.3499 21.38C27.4599 22.3 26.2199 24.23 26.0899 26.41L25.6999 33.04C25.6699 33.5 25.3499 33.88 24.9199 33.96C24.4899 34.04 24.0499 33.81 23.8599 33.39L21.0799 27.36C20.1599 25.37 18.2999 24.04 16.2099 23.86L9.85995 23.33C9.41995 23.29 9.04995 22.95 8.96995 22.5C8.88995 22.05 9.09995 21.6 9.49995 21.4Z" stroke="white" stroke-width="12" stroke-miterlimit="10"/>
<path d="M6.33012 41.96L9.82012 40.25C10.9701 39.69 11.7301 38.51 11.8101 37.18L12.0501 33.13C12.0701 32.85 12.2601 32.62 12.5301 32.57C12.8001 32.52 13.0601 32.66 13.1801 32.92L14.8801 36.6C15.4401 37.81 16.5801 38.63 17.8601 38.73L21.7401 39.05C22.0101 39.07 22.2301 39.28 22.2801 39.56C22.3301 39.84 22.2001 40.11 21.9601 40.23L18.4701 41.94C17.3201 42.5 16.5601 43.68 16.4801 45.01L16.2401 49.06C16.2201 49.34 16.0301 49.57 15.7601 49.62C15.4901 49.67 15.2301 49.53 15.1101 49.27L13.4101 45.59C12.8501 44.38 11.7101 43.56 10.4301 43.45L6.55012 43.13C6.28012 43.11 6.06012 42.9 6.01012 42.62C5.96012 42.34 6.09012 42.07 6.33012 41.95V41.96Z" stroke="white" stroke-width="12" stroke-miterlimit="10"/>
<path d="M9.49995 21.4L15.2199 18.59C17.1099 17.67 18.3499 15.74 18.4799 13.56L18.8699 6.93001C18.8999 6.47001 19.2199 6.09001 19.6499 6.01001C20.0799 5.93001 20.5199 6.16001 20.7099 6.58001L23.4899 12.61C24.4099 14.6 26.2699 15.93 28.3599 16.11L34.7099 16.64C35.1499 16.68 35.5199 17.02 35.5999 17.47C35.6799 17.92 35.4699 18.37 35.0699 18.57L29.3499 21.38C27.4599 22.3 26.2199 24.23 26.0899 26.41L25.6999 33.04C25.6699 33.5 25.3499 33.88 24.9199 33.96C24.4899 34.04 24.0499 33.81 23.8599 33.39L21.0799 27.36C20.1599 25.37 18.2999 24.04 16.2099 23.86L9.85995 23.33C9.41995 23.29 9.04995 22.95 8.96995 22.5C8.88995 22.05 9.09995 21.6 9.49995 21.4Z" fill="#FAE094"/>
<path d="M6.33012 41.96L9.82012 40.25C10.9701 39.69 11.7301 38.51 11.8101 37.18L12.0501 33.13C12.0701 32.85 12.2601 32.62 12.5301 32.57C12.8001 32.52 13.0601 32.66 13.1801 32.92L14.8801 36.6C15.4401 37.81 16.5801 38.63 17.8601 38.73L21.7401 39.05C22.0101 39.07 22.2301 39.28 22.2801 39.56C22.3301 39.84 22.2001 40.11 21.9601 40.23L18.4701 41.94C17.3201 42.5 16.5601 43.68 16.4801 45.01L16.2401 49.06C16.2201 49.34 16.0301 49.57 15.7601 49.62C15.4901 49.67 15.2301 49.53 15.1101 49.27L13.4101 45.59C12.8501 44.38 11.7101 43.56 10.4301 43.45L6.55012 43.13C6.28012 43.11 6.06012 42.9 6.01012 42.62C5.96012 42.34 6.09012 42.07 6.33012 41.95V41.96Z" fill="#FAE094"/>
<path d="M54.1898 72.97C53.6098 69.54 55.4298 67.92 58.6098 67.38C61.7298 66.85 63.8298 68.07 64.3598 71.25L65.5898 78.5L82.6298 75.62C85.8098 75.08 87.9698 76.29 88.5298 79.59C89.0898 82.89 87.4498 84.81 84.2698 85.34L67.2298 88.22L71.4898 113.39C72.7598 120.89 69.0898 123.54 62.2198 124.7C58.2198 125.38 54.8698 125.29 54.0498 120.46C53.6298 117.98 54.6598 115.97 57.2698 115.53L59.1798 115.21C60.8298 114.93 61.1898 114.35 60.9198 112.76L57.0598 89.94L38.7498 93.04C35.5698 93.58 33.3998 92.31 32.8398 89.01C32.2798 85.71 33.9298 83.86 37.1098 83.32L55.4198 80.22L54.1898 72.97ZM37.6298 116.9C37.3998 115.57 37.8798 114.5 39.0698 112.28C41.2498 108.18 43.0098 103.9 44.4898 99.46C45.1198 97.39 45.8298 95.77 48.1798 95.37C50.5298 94.97 54.0998 96.33 54.5498 99C55.0298 101.86 51.7898 109.34 50.4998 112.17C49.6198 114.28 48.1398 117.54 46.8998 119.12C46.1398 120.03 45.2598 120.64 44.1198 120.83C41.5098 121.27 38.1198 119.75 37.6298 116.89V116.9ZM77.1798 90.59C78.5798 90.35 79.9498 90.71 81.0298 91.7C82.7898 93.23 84.3498 95.06 85.8898 96.83C88.4498 99.6 92.7498 104.89 93.0698 106.8C93.5698 109.79 91.0698 112.37 88.2098 112.85C86.1098 113.2 84.7298 112 83.6398 110.55C80.5998 106.49 77.8298 102.9 74.6098 99.33C73.0798 97.63 72.7098 96.97 72.5598 96.08C72.0998 93.35 74.6498 91.02 77.1898 90.59H77.1798ZM87.5098 67.01C88.1198 70.63 85.5898 74.2 81.9598 74.81C78.3398 75.42 74.7698 72.89 74.1598 69.27C73.5498 65.65 76.0798 62.08 79.6998 61.47C83.3198 60.86 86.8898 63.39 87.4998 67.01H87.5098ZM77.8498 68.64C78.1298 70.29 79.6998 71.47 81.3498 71.19C82.9998 70.91 84.0998 69.29 83.8198 67.63C83.5498 66.04 81.9798 64.87 80.3298 65.15C78.6798 65.43 77.5798 67.05 77.8498 68.64Z" fill="#FAE094" stroke="white" stroke-width="8"/>
<path d="M115.03 112.02C113.17 114.36 108.44 119.2 105.31 119.2C103.11 119.2 101.16 117.15 101.16 114.95C101.16 113.58 101.94 112.75 103.75 111.43C110.39 106.4 112.83 100.59 113.03 92.33H103.55C102.23 94.48 100.91 96.63 99.3499 98.63C98.3699 99.95 97.0999 101.37 95.2999 101.37C93.2499 101.37 91.1499 99.76 91.1499 97.56C91.1499 96.34 91.8299 95.36 92.5699 94.43C96.2799 89.79 99.4099 84.42 101.56 78.9C102.24 77.09 102.83 75.48 105.08 75.48C107.08 75.48 109.53 76.51 109.53 78.8C109.53 80.02 108.65 82.32 107.48 84.81H129.95C132.29 84.81 133.76 86.13 133.76 88.57C133.76 91.01 132.29 92.33 129.95 92.33H121.11C120.96 99.46 119.5 106.3 115.05 112.01L115.03 112.02Z" fill="#FAE094" stroke="white" stroke-width="8"/>
<path d="M130.15 98.71C131.65 98.71 132.24 99.62 133.38 101.57C133.92 102.52 134.61 103.61 135.2 104.7C135.74 105.74 136.15 106.79 136.15 107.47C136.15 109.24 134.24 110.42 132.65 110.42C131.2 110.42 130.79 109.69 129.79 107.83C129.11 106.51 128.43 105.29 127.7 104.1C126.93 102.87 126.66 102.19 126.66 101.6C126.66 99.87 128.57 98.69 130.16 98.69L130.15 98.71ZM157.73 100.62C157.73 101.98 157.28 103.76 156.91 105.12C155.73 109.85 153.77 114.48 150.78 118.34C147.51 122.43 142.92 125.75 138.01 127.52C137.24 127.79 136.47 128.06 135.65 128.06C133.88 128.06 132.56 126.2 132.56 124.52C132.56 122.84 133.65 122.29 135.51 121.52C145.32 117.34 149.28 110.89 151.1 100.71C151.42 98.94 152.14 97.57 154.14 97.57C156 97.57 157.73 98.52 157.73 100.61V100.62ZM139.29 96.53C140.97 96.53 141.92 98.07 142.83 99.94C143.83 101.71 145.1 104.17 145.1 105.44C145.1 107.21 143.33 108.44 141.65 108.44C140.15 108.44 139.47 107.26 138.92 106.03C138.24 104.49 137.47 102.94 136.6 101.49C136.19 100.85 135.83 100.17 135.83 99.45C135.83 97.68 137.65 96.54 139.28 96.54L139.29 96.53Z" fill="#FAE094" stroke="white" stroke-width="8"/>
<path d="M198.1 105.45C199.66 106.62 201.44 108.1 201.32 110.26C201.17 112.9 198.98 115.6 196.22 115.44C194.42 115.34 193.34 114.32 190.51 112.3C186.12 109.17 181.65 106.34 176.92 103.91L175.67 126.26C175.48 129.61 173.78 131.02 170.43 130.83C167.14 130.65 165.6 129.06 165.79 125.7L168.29 81.01C168.48 77.66 170.18 76.25 173.47 76.43C176.82 76.62 178.36 78.21 178.17 81.56L177.52 93.24C184.59 96.88 191.7 100.71 198.11 105.45H198.1Z" fill="#FAE094" stroke="white" stroke-width="8"/>
<path d="M54.1898 72.97C53.6098 69.54 55.4298 67.92 58.6098 67.38C61.7298 66.85 63.8298 68.07 64.3598 71.25L65.5898 78.5L82.6298 75.62C85.8098 75.08 87.9698 76.29 88.5298 79.59C89.0898 82.89 87.4498 84.81 84.2698 85.34L67.2298 88.22L71.4898 113.39C72.7598 120.89 69.0898 123.54 62.2198 124.7C58.2198 125.38 54.8698 125.29 54.0498 120.46C53.6298 117.98 54.6598 115.97 57.2698 115.53L59.1798 115.21C60.8298 114.93 61.1898 114.35 60.9198 112.76L57.0598 89.94L38.7498 93.04C35.5698 93.58 33.3998 92.31 32.8398 89.01C32.2798 85.71 33.9298 83.86 37.1098 83.32L55.4198 80.22L54.1898 72.97ZM37.6298 116.9C37.3998 115.57 37.8798 114.5 39.0698 112.28C41.2498 108.18 43.0098 103.9 44.4898 99.46C45.1198 97.39 45.8298 95.77 48.1798 95.37C50.5298 94.97 54.0998 96.33 54.5498 99C55.0298 101.86 51.7898 109.34 50.4998 112.17C49.6198 114.28 48.1398 117.54 46.8998 119.12C46.1398 120.03 45.2598 120.64 44.1198 120.83C41.5098 121.27 38.1198 119.75 37.6298 116.89V116.9ZM77.1798 90.59C78.5798 90.35 79.9498 90.71 81.0298 91.7C82.7898 93.23 84.3498 95.06 85.8898 96.83C88.4498 99.6 92.7498 104.89 93.0698 106.8C93.5698 109.79 91.0698 112.37 88.2098 112.85C86.1098 113.2 84.7298 112 83.6398 110.55C80.5998 106.49 77.8298 102.9 74.6098 99.33C73.0798 97.63 72.7098 96.97 72.5598 96.08C72.0998 93.35 74.6498 91.02 77.1898 90.59H77.1798ZM87.5098 67.01C88.1198 70.63 85.5898 74.2 81.9598 74.81C78.3398 75.42 74.7698 72.89 74.1598 69.27C73.5498 65.65 76.0798 62.08 79.6998 61.47C83.3198 60.86 86.8898 63.39 87.4998 67.01H87.5098ZM77.8498 68.64C78.1298 70.29 79.6998 71.47 81.3498 71.19C82.9998 70.91 84.0998 69.29 83.8198 67.63C83.5498 66.04 81.9798 64.87 80.3298 65.15C78.6798 65.43 77.5798 67.05 77.8498 68.64Z" fill="#FAE094"/>
<path d="M115.03 112.02C113.17 114.36 108.44 119.2 105.31 119.2C103.11 119.2 101.16 117.15 101.16 114.95C101.16 113.58 101.94 112.75 103.75 111.43C110.39 106.4 112.83 100.59 113.03 92.33H103.55C102.23 94.48 100.91 96.63 99.3499 98.63C98.3699 99.95 97.0999 101.37 95.2999 101.37C93.2499 101.37 91.1499 99.76 91.1499 97.56C91.1499 96.34 91.8299 95.36 92.5699 94.43C96.2799 89.79 99.4099 84.42 101.56 78.9C102.24 77.09 102.83 75.48 105.08 75.48C107.08 75.48 109.53 76.51 109.53 78.8C109.53 80.02 108.65 82.32 107.48 84.81H129.95C132.29 84.81 133.76 86.13 133.76 88.57C133.76 91.01 132.29 92.33 129.95 92.33H121.11C120.96 99.46 119.5 106.3 115.05 112.01L115.03 112.02Z" fill="#FAE094"/>
<path d="M130.15 98.71C131.65 98.71 132.24 99.62 133.38 101.57C133.92 102.52 134.61 103.61 135.2 104.7C135.74 105.74 136.15 106.79 136.15 107.47C136.15 109.24 134.24 110.42 132.65 110.42C131.2 110.42 130.79 109.69 129.79 107.83C129.11 106.51 128.43 105.29 127.7 104.1C126.93 102.87 126.66 102.19 126.66 101.6C126.66 99.87 128.57 98.69 130.16 98.69L130.15 98.71ZM157.73 100.62C157.73 101.98 157.28 103.76 156.91 105.12C155.73 109.85 153.77 114.48 150.78 118.34C147.51 122.43 142.92 125.75 138.01 127.52C137.24 127.79 136.47 128.06 135.65 128.06C133.88 128.06 132.56 126.2 132.56 124.52C132.56 122.84 133.65 122.29 135.51 121.52C145.32 117.34 149.28 110.89 151.1 100.71C151.42 98.94 152.14 97.57 154.14 97.57C156 97.57 157.73 98.52 157.73 100.61V100.62ZM139.29 96.53C140.97 96.53 141.92 98.07 142.83 99.94C143.83 101.71 145.1 104.17 145.1 105.44C145.1 107.21 143.33 108.44 141.65 108.44C140.15 108.44 139.47 107.26 138.92 106.03C138.24 104.49 137.47 102.94 136.6 101.49C136.19 100.85 135.83 100.17 135.83 99.45C135.83 97.68 137.65 96.54 139.28 96.54L139.29 96.53Z" fill="#FAE094"/>
<path d="M106.59 25.23C108.73 26.5 119.47 30.04 121.53 30.84" stroke="white" stroke-width="14" stroke-linecap="round" stroke-linejoin="round"/>
<path d="M102.07 39.95C105.27 40.47 126.37 39.2 125.16 41.06C117.48 52.91 106.33 56.66 96.1401 61.52" stroke="white" stroke-width="14" stroke-linecap="round" stroke-linejoin="round"/>
<path d="M112.97 50.77C125.17 57.5 102.85 64.76 130.35 66.61" stroke="white" stroke-width="14" stroke-linecap="round" stroke-linejoin="round"/>
<path d="M149.75 34.69C148.13 41.97 138.33 58.7 139.82 64.14C141.32 69.57 150.04 55.21 150.76 57.08" stroke="white" stroke-width="14" stroke-linecap="round" stroke-linejoin="round"/>
<path d="M171.88 42.27C172.37 43.58 165.82 64.36 165.86 66.31C166.06 77.59 148.92 70.68 151.76 64.96C157.13 54.13 172.84 68.69 173.97 70.75" stroke="white" stroke-width="14" stroke-linecap="round" stroke-linejoin="round"/>
<path d="M161.49 37.68C167.64 39.97 179.49 42.52 181.13 42.7" stroke="white" stroke-width="14" stroke-linecap="round" stroke-linejoin="round"/>
<path d="M160.01 50.2C163.71 51.35 177.81 55.74 177.81 55.74" stroke="white" stroke-width="14" stroke-linecap="round" stroke-linejoin="round"/>
<path d="M207.49 53.51C201.73 59.24 190.22 72.74 183.56 77.48" stroke="white" stroke-width="14" stroke-linecap="round" stroke-linejoin="round"/>
<path d="M194.73 68.54C204.9 62.14 211.42 75.11 201.75 79.82" stroke="white" stroke-width="14" stroke-linecap="round" stroke-linejoin="round"/>
<path d="M201.75 79.83C200 87.79 211.31 90.57 215.92 81.92" stroke="white" stroke-width="14" stroke-linecap="round" stroke-linejoin="round"/>
<path d="M106.59 25.23C108.73 26.5 119.47 30.04 121.53 30.84" stroke="#FFBECD" stroke-width="7.93" stroke-linecap="round" stroke-linejoin="round"/>
<path d="M102.07 39.95C105.27 40.47 126.37 39.2 125.16 41.06C117.48 52.91 106.33 56.66 96.1401 61.52" stroke="#FAE094" stroke-width="7.93" stroke-linecap="round" stroke-linejoin="round"/>
<path d="M112.97 50.77C125.17 57.5 102.85 64.76 130.35 66.61" stroke="#A0DAEA" stroke-width="7.93" stroke-linecap="round" stroke-linejoin="round"/>
<path d="M149.75 34.69C148.13 41.97 138.33 58.7 139.82 64.14C141.32 69.57 150.04 55.21 150.76 57.08" stroke="#FFBECD" stroke-width="8.09" stroke-linecap="round" stroke-linejoin="round"/>
<path d="M171.88 42.27C172.37 43.58 165.82 64.36 165.86 66.31C166.06 77.59 148.92 70.68 151.76 64.96C157.13 54.13 172.84 68.69 173.97 70.75" stroke="#A0DAEA" stroke-width="8.09" stroke-linecap="round" stroke-linejoin="round"/>
<path d="M161.49 37.68C167.64 39.97 179.49 42.52 181.13 42.7" stroke="#FAE094" stroke-width="8.09" stroke-linecap="round" stroke-linejoin="round"/>
<path d="M160.01 50.2C163.71 51.35 177.81 55.74 177.81 55.74" stroke="#FAE094" stroke-width="8.09" stroke-linecap="round" stroke-linejoin="round"/>
<path d="M207.49 53.51C201.73 59.24 190.22 72.74 183.56 77.48" stroke="#FFBECD" stroke-width="7.83" stroke-linecap="round" stroke-linejoin="round"/>
<path d="M194.73 68.54C204.9 62.14 211.42 75.11 201.75 79.82" stroke="#FAE094" stroke-width="7.83" stroke-linecap="round" stroke-linejoin="round"/>
<path d="M201.75 79.83C200 87.79 211.31 90.57 215.92 81.92" stroke="#A0DAEA" stroke-width="7.83" stroke-linecap="round" stroke-linejoin="round"/>
<path d="M92.5901 61.47C95.5001 68 92.5501 75.67 86.0201 78.58C79.4901 81.49 71.8201 78.54 68.9101 72.01C66.0001 65.48 68.9501 57.81 75.4801 54.9C82.0101 51.99 89.6801 54.94 92.5901 61.47Z" fill="#FAE094"/>
<path d="M80.7602 75.34C85.5098 75.34 89.3602 71.4897 89.3602 66.74C89.3602 61.9904 85.5098 58.14 80.7602 58.14C76.0105 58.14 72.1602 61.9904 72.1602 66.74C72.1602 71.4897 76.0105 75.34 80.7602 75.34Z" fill="#DFF1F4"/>
<path d="M96.7203 78.4152L91.1933 73.0254C90.0901 71.9496 88.3237 71.9718 87.2479 73.075C86.1721 74.1781 86.1943 75.9445 87.2975 77.0203L92.8245 82.4102C93.9277 83.4859 95.6941 83.4637 96.7699 82.3606C97.8457 81.2574 97.8235 79.491 96.7203 78.4152Z" fill="#A0DAEA"/>
<path d="M74.8702 63.52C73.4102 66.53 74.3002 69.03 75.4702 70.61" stroke="white" stroke-width="2" stroke-linecap="round" stroke-linejoin="round"/>
<path d="M76.9398 62.49C77.5804 62.49 78.0998 61.9706 78.0998 61.33C78.0998 60.6893 77.5804 60.17 76.9398 60.17C76.2991 60.17 75.7798 60.6893 75.7798 61.33C75.7798 61.9706 76.2991 62.49 76.9398 62.49Z" fill="white"/>
<path d="M96.82 61.18C100.31 69.02 96.77 78.23 88.93 81.72C81.09 85.21 71.88 81.67 68.39 73.83C64.9 65.99 68.44 56.78 76.28 53.29C84.12 49.8 93.33 53.34 96.82 61.18Z" fill="#FAE094"/>
<path d="M82.6 77.84C88.3051 77.84 92.93 73.2151 92.93 67.51C92.93 61.8049 88.3051 57.18 82.6 57.18C76.8949 57.18 72.27 61.8049 72.27 67.51C72.27 73.2151 76.8949 77.84 82.6 77.84Z" fill="#DFF1F4"/>
<path d="M102.172 81.9186L94.7338 74.6647C93.6306 73.5889 91.8642 73.6111 90.7884 74.7143L90.0065 75.5161C88.9307 76.6193 88.9529 78.3857 90.0561 79.4615L97.4947 86.7154C98.5978 87.7912 100.364 87.769 101.44 86.6658L102.222 85.864C103.298 84.7608 103.276 82.9944 102.172 81.9186Z" fill="#A0DAEA"/>
<path d="M75.5298 63.64C73.7798 67.26 74.8398 70.25 76.2498 72.15" stroke="white" stroke-width="2.4" stroke-linecap="round" stroke-linejoin="round"/>
<path d="M78.0199 62.4C78.7876 62.4 79.4099 61.7777 79.4099 61.01C79.4099 60.2423 78.7876 59.62 78.0199 59.62C77.2522 59.62 76.6299 60.2423 76.6299 61.01C76.6299 61.7777 77.2522 62.4 78.0199 62.4Z" fill="white"/>
<path d="M198.1 105.45C199.66 106.62 201.44 108.1 201.32 110.26C201.17 112.9 198.98 115.6 196.22 115.44C194.42 115.34 193.34 114.32 190.51 112.3C186.12 109.17 181.65 106.34 176.92 103.91L175.67 126.26C175.48 129.61 173.78 131.02 170.43 130.83C167.14 130.65 165.6 129.06 165.79 125.7L168.29 81.01C168.48 77.66 170.18 76.25 173.47 76.43C176.82 76.62 178.36 78.21 178.17 81.56L177.52 93.24C184.59 96.88 191.7 100.71 198.11 105.45H198.1Z" fill="#FAE094"/>
</g>
<defs>
<clipPath id="clip0_1398_843">
<rect width="256.17" height="143.85" fill="white"/>
</clipPath>
</defs>
</svg>
