<svg width="51" height="45" viewBox="0 0 51 45" fill="none" xmlns="http://www.w3.org/2000/svg">
<path d="M47.0055 16.1321L26.6016 1.40248L26.4745 1.31139L26.3433 1.226C25.0996 0.424043 23.6612 0 22.1819 0C20.5921 0 19.065 0.483429 17.7653 1.39915C15.2373 3.1763 14.0339 6.25218 14.6769 9.26946H8.41902C3.77673 9.26946 0 13.0461 0 17.6884V27.3116C0 31.953 3.77673 35.7298 8.41902 35.7298H14.677C14.0305 38.742 15.2332 41.8213 17.7688 43.6034C19.065 44.5158 20.5929 45 22.1819 45C23.6613 45 25.0997 44.576 26.3433 43.7739L26.4745 43.6886L26.6016 43.5975L46.9988 28.8729C49.0418 27.3936 50.257 25.0126 50.257 22.4995C50.257 19.9873 49.0418 17.6064 47.0055 16.1321ZM43.4896 24.0123L23.0926 38.737C22.8149 38.916 22.4979 39.0055 22.1819 39.0055C21.8432 39.0055 21.5053 38.9026 21.2159 38.6993C20.6556 38.3055 20.3914 37.6113 20.5477 36.9456L22.232 29.7351H8.41902C7.08014 29.7351 5.99461 28.6505 5.99461 27.3116V17.6884C5.99461 16.3495 7.08014 15.264 8.41902 15.264H22.232L20.5477 8.05525C20.3922 7.38787 20.6555 6.69458 21.2159 6.30067C21.5053 6.0966 21.8431 5.99461 22.1819 5.99461C22.4979 5.99461 22.8149 6.08413 23.0926 6.26308L43.4896 20.9876C43.9746 21.3389 44.2624 21.9008 44.2624 22.4996C44.2624 23.0984 43.9746 23.6612 43.4896 24.0123Z" fill="#755D52"/>
</svg>
