<svg width="119" height="148" viewBox="0 0 119 148" fill="none" xmlns="http://www.w3.org/2000/svg">
<g filter="url(#filter0_d_1437_1705)">
<path d="M2 15C2 6.71574 8.71573 0 17 0H116.917V143.832H17C8.71573 143.832 2 137.116 2 128.832V15Z" fill="white"/>
</g>
<mask id="path-2-inside-1_1437_1705" fill="white">
<path d="M8.67261 9.63825C8.67261 4.31519 12.9878 0 18.3108 0V0V124.556H8.67261V9.63825Z"/>
</mask>
<path d="M8.67261 0H18.3108H8.67261ZM18.3108 124.556H8.67261H18.3108ZM6.67261 124.556V11.6382C6.67261 5.21062 11.8832 0 18.3108 0C14.0924 0 10.6726 4.31519 10.6726 9.63824V124.556H6.67261ZM18.3108 0V124.556V0Z" fill="#DFD1BE" mask="url(#path-2-inside-1_1437_1705)"/>
<path d="M7.93127 128.073C7.93127 125.312 10.1699 123.073 12.9313 123.073H110.986V139.384H17.9313C12.4084 139.384 7.93127 134.907 7.93127 129.384V128.073Z" fill="#DFD1BE"/>
<rect x="104.314" y="123.073" width="12.6039" height="1.48281" fill="#DFD1BE"/>
<rect x="12.3796" y="127.521" width="98.6066" height="1.48281" fill="#FFFAF5"/>
<rect x="12.3796" y="131.229" width="98.6066" height="1.48281" fill="#FFFAF5"/>
<rect x="12.3796" y="134.936" width="98.6066" height="1.48281" fill="#FFFAF5"/>
<defs>
<filter id="filter0_d_1437_1705" x="0" y="0" width="118.917" height="147.832" filterUnits="userSpaceOnUse" color-interpolation-filters="sRGB">
<feFlood flood-opacity="0" result="BackgroundImageFix"/>
<feColorMatrix in="SourceAlpha" type="matrix" values="0 0 0 0 0 0 0 0 0 0 0 0 0 0 0 0 0 0 127 0" result="hardAlpha"/>
<feOffset dy="2"/>
<feGaussianBlur stdDeviation="1"/>
<feComposite in2="hardAlpha" operator="out"/>
<feColorMatrix type="matrix" values="0 0 0 0 0 0 0 0 0 0 0 0 0 0 0 0 0 0 0.25 0"/>
<feBlend mode="normal" in2="BackgroundImageFix" result="effect1_dropShadow_1437_1705"/>
<feBlend mode="normal" in="SourceGraphic" in2="effect1_dropShadow_1437_1705" result="shape"/>
</filter>
</defs>
</svg>
