<svg width="39" height="42" viewBox="0 0 39 42" fill="none" xmlns="http://www.w3.org/2000/svg">
<path d="M30.0717 7.23105L25.5872 13.6354C26.127 14.0153 26.6301 14.4332 27.0938 14.8984C29.148 16.9538 30.4031 19.7548 30.4057 22.8866C30.4031 26.0183 29.148 28.814 27.0938 30.8721C25.0409 32.9211 22.24 34.1788 19.1128 34.1788C17.3978 34.1788 15.7851 33.7963 14.3388 33.1242C14.0362 32.984 13.7467 32.8314 13.4663 32.6644C13.1781 32.5006 12.9029 32.3211 12.6383 32.1351C12.0972 31.7577 11.5942 31.3346 11.1252 30.8721C9.07618 28.8141 7.81848 26.0183 7.81848 22.8866C7.81848 19.7548 9.07618 16.9538 11.1252 14.8984C12.4942 13.532 14.196 12.5206 16.1086 11.9958V15.3647L23.6993 7.68362L16.1087 0V4.00755C6.97881 5.4513 0.0013125 13.3498 0 22.8866C0.0013125 29.361 3.22284 35.0834 8.15268 38.5394C8.60467 38.8558 9.0711 39.1538 9.55574 39.4369C10.0365 39.71 10.5278 39.9714 11.0348 40.2078C13.4873 41.3522 16.2228 41.9954 19.1129 42C29.6708 41.9934 38.2204 33.4438 38.2217 22.8866C38.2216 16.4076 35.0002 10.6903 30.0717 7.23105Z" fill="#755D52"/>
</svg>
